G04 PROTEUS GERBER X2 FILE*
%TF.GenerationSoftware,Labcenter,Proteus,8.7-SP3-Build25561*%
%TF.CreationDate,2020-06-08T17:47:50+00:00*%
%TF.FileFunction,Copper,L1,Top*%
%TF.FilePolarity,Positive*%
%TF.Part,Single*%
%TF.SameCoordinates,{25e8a378-ae3c-4486-9c29-23821959b247}*%
%FSLAX45Y45*%
%MOMM*%
G01*
%TA.AperFunction,Conductor*%
%ADD10C,0.254000*%
%ADD11C,0.762000*%
%ADD12C,0.508000*%
%TA.AperFunction,ViaPad*%
%ADD13C,0.762000*%
%TA.AperFunction,ComponentPad*%
%ADD14R,2.032000X2.032000*%
%TA.AperFunction,SMDPad,CuDef*%
%ADD15R,2.692400X1.193800*%
%TA.AperFunction,ComponentPad*%
%ADD16C,2.032000*%
%TA.AperFunction,ComponentPad*%
%ADD17R,1.270000X1.270000*%
%ADD18C,1.270000*%
%TA.AperFunction,WasherPad*%
%ADD19R,1.280000X1.280000*%
%TA.AperFunction,ComponentPad*%
%ADD70C,1.280000*%
%TA.AperFunction,SMDPad,CuDef*%
%ADD71R,1.200000X2.200000*%
%TA.AperFunction,ComponentPad*%
%ADD20C,1.778000*%
%ADD21C,0.980000*%
%TA.AperFunction,SMDPad,CuDef*%
%ADD22R,2.362200X2.438400*%
%ADD23R,3.403600X1.244600*%
%TA.AperFunction,ComponentPad*%
%ADD24C,2.286000*%
%TA.AperFunction,SMDPad,CuDef*%
%ADD25R,1.193800X2.692400*%
%ADD26R,0.558800X0.609600*%
%ADD27R,0.609600X0.609600*%
%ADD28R,0.660400X0.660400*%
%TA.AperFunction,Profile*%
%ADD29C,0.203200*%
%TD.AperFunction*%
D10*
X-2794000Y+782000D02*
X-2901000Y+889000D01*
X-3746500Y+889000D01*
X-3810000Y+952500D01*
X-3810000Y+2945000D01*
X-3560000Y+2945000D01*
X-1651000Y+1917000D02*
X-1651000Y+1714500D01*
X-1528000Y+1591500D01*
X-1528000Y+1282000D01*
X-1524000Y+4127500D02*
X-1266000Y+4127500D01*
X-1266000Y+4298000D01*
X-1058000Y+1282000D02*
X-1058000Y+1460500D01*
X-1143000Y+1545500D01*
X-1143000Y+2540000D01*
X-1058000Y+1282000D02*
X-1058000Y+1079500D01*
X-1524000Y+1079500D01*
X-3310000Y+1274000D02*
X-3187000Y+1397000D01*
X-2139000Y+1397000D01*
X-2032000Y+1290000D01*
X-2032000Y+1036000D02*
X-2413000Y+1036000D01*
X-2667000Y+1290000D01*
X-2794000Y+1290000D01*
X-1143000Y+3175000D02*
X-1270000Y+3175000D01*
X-2794000Y+1544000D02*
X-2659000Y+1679000D01*
X-2659000Y+2354000D01*
X-4170000Y+4707000D02*
X-3864165Y+4401165D01*
X-3864165Y+3873500D01*
X-3740665Y+3750000D01*
X-3090000Y+3750000D01*
X-4170000Y+4707000D02*
X-4889500Y+4707000D01*
X-4953000Y+4643500D01*
X-4953000Y+4318000D01*
X-750000Y+2464000D02*
X-1043000Y+2464000D01*
X-1043000Y+2540000D01*
X-4889500Y+3238500D02*
X-4929000Y+3278000D01*
X-4929000Y+3813000D01*
X-2159000Y+4195000D02*
X-3096000Y+4195000D01*
X-3350000Y+4449000D01*
X-4699000Y+2794000D02*
X-4699000Y+3048000D01*
X-4889500Y+3238500D01*
X-4170000Y+3691000D02*
X-4000500Y+3691000D01*
X-3864500Y+3555000D01*
X-3560000Y+3555000D01*
X-4500000Y+2750000D02*
X-4500000Y+2781300D01*
X-4686300Y+2781300D01*
X-4699000Y+2794000D01*
X-4500000Y+2750000D02*
X-4318000Y+2750000D01*
X-4318000Y+3030000D01*
X-4500000Y+3030000D01*
X-5500000Y+956000D02*
X-5016500Y+956000D01*
X-4929000Y+1043500D01*
X-4929000Y+3053000D01*
X-5500000Y+2645000D02*
X-5715000Y+2645000D01*
X-5778500Y+2708500D01*
X-5778500Y+2794000D01*
X-5524500Y+2794000D01*
X-5437000Y+2881500D01*
X-5437000Y+3053000D01*
X-5500000Y+1210000D02*
X-5207000Y+1503000D01*
X-5207000Y+2095500D01*
X-5286500Y+2175000D01*
X-5500000Y+2175000D01*
X-2159000Y+4695000D02*
X-1714500Y+4250500D01*
X-1714500Y+3556000D01*
X-1622500Y+3464000D01*
X-750000Y+3464000D01*
X-3000000Y+4449000D02*
X-3123000Y+4572000D01*
X-3492500Y+4572000D01*
X-3556000Y+4508500D01*
X-3556000Y+4064000D01*
X-3443554Y+3951554D01*
X-3111500Y+3951554D01*
X-3000000Y+3840054D01*
X-3000000Y+3750000D01*
X-952500Y+2349500D02*
X-952500Y+698500D01*
X-1016000Y+635000D01*
X-4254500Y+635000D01*
X-4318000Y+698500D01*
X-4318000Y+1500000D01*
X-4500000Y+1500000D01*
X-4500000Y+2280000D02*
X-4318000Y+2280000D01*
X-4318000Y+1970000D01*
X-4500000Y+1970000D01*
D11*
X-1651000Y+2933000D02*
X-571500Y+2933000D01*
X-444500Y+3060000D01*
X-444500Y+4298000D01*
X-646000Y+4298000D01*
X-3310000Y+2544000D02*
X-3310000Y+3111500D01*
X-3802500Y+3111500D01*
X-4191000Y+3500000D01*
X-4500000Y+3500000D01*
X-1651000Y+2933000D02*
X-1651000Y+2603500D01*
X-1905000Y+2349500D01*
X-1905000Y+909000D01*
X-2032000Y+782000D01*
X-2262000Y+2945000D02*
X-2262000Y+2667000D01*
X-2425000Y+2504000D01*
X-2659000Y+2504000D01*
X-4762500Y+4000500D02*
X-5437000Y+4000500D01*
X-5437000Y+3813000D01*
X-4500000Y+3500000D02*
X-4762500Y+3500000D01*
X-4762500Y+4000500D01*
D12*
X-1651000Y+2933000D02*
X-1651000Y+3175000D01*
X-1360000Y+3175000D01*
D11*
X-3310000Y+2544000D02*
X-3048000Y+2544000D01*
X-3008000Y+2504000D01*
X-2659000Y+2504000D01*
X-2262000Y+2945000D02*
X-1905000Y+2945000D01*
X-1893000Y+2933000D01*
X-1651000Y+2933000D01*
X-4762500Y+4000500D02*
X-4699000Y+4064000D01*
X-4699000Y+4318000D01*
D13*
X-1524000Y+4127500D03*
X-1524000Y+1079500D03*
X-1143000Y+3175000D03*
X-4889500Y+3238500D03*
X-952500Y+2349500D03*
D14*
X-5500000Y+956000D03*
X-5500000Y+1210000D03*
D15*
X-5500000Y+2645000D03*
X-5500000Y+2175000D03*
D14*
X-750000Y+3210000D03*
X-750000Y+3464000D03*
D16*
X-750000Y+1956000D03*
X-750000Y+2464000D03*
X-750000Y+2210000D03*
D17*
X-3310000Y+766000D03*
D18*
X-3310000Y+1020000D03*
X-3310000Y+1274000D03*
X-3310000Y+1528000D03*
X-3310000Y+1782000D03*
X-3310000Y+2036000D03*
X-3310000Y+2290000D03*
X-3310000Y+2544000D03*
X-4072000Y+2544000D03*
X-4072000Y+2290000D03*
X-4072000Y+2036000D03*
X-4072000Y+1782000D03*
X-4072000Y+1528000D03*
X-4072000Y+1274000D03*
X-4072000Y+1020000D03*
X-4072000Y+766000D03*
D19*
X-2262000Y+3445000D03*
D70*
X-2262000Y+2945000D03*
D19*
X-2159000Y+4195000D03*
D70*
X-2159000Y+4695000D03*
D19*
X-3350000Y+4449000D03*
D70*
X-3000000Y+4449000D03*
D17*
X-2032000Y+782000D03*
D18*
X-2032000Y+1036000D03*
X-2032000Y+1290000D03*
X-2032000Y+1544000D03*
X-2794000Y+1544000D03*
X-2794000Y+1290000D03*
X-2794000Y+1036000D03*
X-2794000Y+782000D03*
D71*
X-4929000Y+3813000D03*
X-5437000Y+3813000D03*
X-4929000Y+3053000D03*
X-5437000Y+3053000D03*
D20*
X-1651000Y+2933000D03*
X-1651000Y+1917000D03*
D21*
X-2659000Y+2354000D03*
X-2659000Y+2504000D03*
D22*
X-1266000Y+4298000D03*
X-646000Y+4298000D03*
D23*
X-3560000Y+2945000D03*
X-3560000Y+3555000D03*
D24*
X-4170000Y+4707000D03*
X-4170000Y+3691000D03*
D14*
X-5207000Y+4318000D03*
X-4953000Y+4318000D03*
X-4699000Y+4318000D03*
D25*
X-1528000Y+1282000D03*
X-1058000Y+1282000D03*
D15*
X-4500000Y+3030000D03*
X-4500000Y+3500000D03*
D26*
X-1143000Y+2540000D03*
X-1043000Y+2540000D03*
D27*
X-1270000Y+3175000D03*
X-1360000Y+3175000D03*
D28*
X-3000000Y+3750000D03*
X-3090000Y+3750000D03*
D15*
X-4500000Y+2280000D03*
X-4500000Y+2750000D03*
X-4500000Y+1970000D03*
X-4500000Y+1500000D03*
D29*
X-6500000Y+250000D02*
X-6495026Y+198883D01*
X-6480713Y+151611D01*
X-6457977Y+109100D01*
X-6427734Y+72266D01*
X-6390900Y+42023D01*
X-6348389Y+19287D01*
X-6301117Y+4974D01*
X-6250000Y+0D01*
X-6500000Y+5250000D02*
X-6495026Y+5301117D01*
X-6480713Y+5348389D01*
X-6457977Y+5390900D01*
X-6427734Y+5427734D01*
X-6390900Y+5457977D01*
X-6348389Y+5480713D01*
X-6301117Y+5495026D01*
X-6250000Y+5500000D01*
X-250000Y+5500000D02*
X-198883Y+5495026D01*
X-151611Y+5480713D01*
X-109100Y+5457977D01*
X-72266Y+5427734D01*
X-42023Y+5390900D01*
X-19287Y+5348389D01*
X-4974Y+5301117D01*
X+0Y+5250000D01*
X-250000Y+0D02*
X-198883Y+4974D01*
X-151611Y+19287D01*
X-109100Y+42023D01*
X-72266Y+72266D01*
X-42023Y+109100D01*
X-19287Y+151611D01*
X-4974Y+198883D01*
X+0Y+250000D01*
X-5750000Y+5000000D02*
X-5750815Y+5020171D01*
X-5757434Y+5060514D01*
X-5771247Y+5100857D01*
X-5793693Y+5141200D01*
X-5827990Y+5181418D01*
X-5868333Y+5212518D01*
X-5908676Y+5232723D01*
X-5949019Y+5244747D01*
X-5989362Y+5249774D01*
X-6000000Y+5250000D01*
X-6250000Y+5000000D02*
X-6249185Y+5020171D01*
X-6242566Y+5060514D01*
X-6228753Y+5100857D01*
X-6206307Y+5141200D01*
X-6172010Y+5181418D01*
X-6131667Y+5212518D01*
X-6091324Y+5232723D01*
X-6050981Y+5244747D01*
X-6010638Y+5249774D01*
X-6000000Y+5250000D01*
X-6250000Y+5000000D02*
X-6249185Y+4979829D01*
X-6242566Y+4939486D01*
X-6228753Y+4899143D01*
X-6206307Y+4858800D01*
X-6172010Y+4818582D01*
X-6131667Y+4787482D01*
X-6091324Y+4767277D01*
X-6050981Y+4755253D01*
X-6010638Y+4750226D01*
X-6000000Y+4750000D01*
X-5750000Y+5000000D02*
X-5750815Y+4979829D01*
X-5757434Y+4939486D01*
X-5771247Y+4899143D01*
X-5793693Y+4858800D01*
X-5827990Y+4818582D01*
X-5868333Y+4787482D01*
X-5908676Y+4767277D01*
X-5949019Y+4755253D01*
X-5989362Y+4750226D01*
X-6000000Y+4750000D01*
X-250000Y+5000000D02*
X-250815Y+5020171D01*
X-257434Y+5060514D01*
X-271247Y+5100857D01*
X-293693Y+5141200D01*
X-327990Y+5181418D01*
X-368333Y+5212518D01*
X-408676Y+5232723D01*
X-449019Y+5244747D01*
X-489362Y+5249774D01*
X-500000Y+5250000D01*
X-750000Y+5000000D02*
X-749185Y+5020171D01*
X-742566Y+5060514D01*
X-728753Y+5100857D01*
X-706307Y+5141200D01*
X-672010Y+5181418D01*
X-631667Y+5212518D01*
X-591324Y+5232723D01*
X-550981Y+5244747D01*
X-510638Y+5249774D01*
X-500000Y+5250000D01*
X-750000Y+5000000D02*
X-749185Y+4979829D01*
X-742566Y+4939486D01*
X-728753Y+4899143D01*
X-706307Y+4858800D01*
X-672010Y+4818582D01*
X-631667Y+4787482D01*
X-591324Y+4767277D01*
X-550981Y+4755253D01*
X-510638Y+4750226D01*
X-500000Y+4750000D01*
X-250000Y+5000000D02*
X-250815Y+4979829D01*
X-257434Y+4939486D01*
X-271247Y+4899143D01*
X-293693Y+4858800D01*
X-327990Y+4818582D01*
X-368333Y+4787482D01*
X-408676Y+4767277D01*
X-449019Y+4755253D01*
X-489362Y+4750226D01*
X-500000Y+4750000D01*
X-250000Y+500000D02*
X-250815Y+520171D01*
X-257434Y+560514D01*
X-271247Y+600857D01*
X-293693Y+641200D01*
X-327990Y+681418D01*
X-368333Y+712518D01*
X-408676Y+732723D01*
X-449019Y+744747D01*
X-489362Y+749774D01*
X-500000Y+750000D01*
X-750000Y+500000D02*
X-749185Y+520171D01*
X-742566Y+560514D01*
X-728753Y+600857D01*
X-706307Y+641200D01*
X-672010Y+681418D01*
X-631667Y+712518D01*
X-591324Y+732723D01*
X-550981Y+744747D01*
X-510638Y+749774D01*
X-500000Y+750000D01*
X-750000Y+500000D02*
X-749185Y+479829D01*
X-742566Y+439486D01*
X-728753Y+399143D01*
X-706307Y+358800D01*
X-672010Y+318582D01*
X-631667Y+287482D01*
X-591324Y+267277D01*
X-550981Y+255253D01*
X-510638Y+250226D01*
X-500000Y+250000D01*
X-250000Y+500000D02*
X-250815Y+479829D01*
X-257434Y+439486D01*
X-271247Y+399143D01*
X-293693Y+358800D01*
X-327990Y+318582D01*
X-368333Y+287482D01*
X-408676Y+267277D01*
X-449019Y+255253D01*
X-489362Y+250226D01*
X-500000Y+250000D01*
X-5750000Y+500000D02*
X-5750815Y+520171D01*
X-5757434Y+560514D01*
X-5771247Y+600857D01*
X-5793693Y+641200D01*
X-5827990Y+681418D01*
X-5868333Y+712518D01*
X-5908676Y+732723D01*
X-5949019Y+744747D01*
X-5989362Y+749774D01*
X-6000000Y+750000D01*
X-6250000Y+500000D02*
X-6249185Y+520171D01*
X-6242566Y+560514D01*
X-6228753Y+600857D01*
X-6206307Y+641200D01*
X-6172010Y+681418D01*
X-6131667Y+712518D01*
X-6091324Y+732723D01*
X-6050981Y+744747D01*
X-6010638Y+749774D01*
X-6000000Y+750000D01*
X-6250000Y+500000D02*
X-6249185Y+479829D01*
X-6242566Y+439486D01*
X-6228753Y+399143D01*
X-6206307Y+358800D01*
X-6172010Y+318582D01*
X-6131667Y+287482D01*
X-6091324Y+267277D01*
X-6050981Y+255253D01*
X-6010638Y+250226D01*
X-6000000Y+250000D01*
X-5750000Y+500000D02*
X-5750815Y+479829D01*
X-5757434Y+439486D01*
X-5771247Y+399143D01*
X-5793693Y+358800D01*
X-5827990Y+318582D01*
X-5868333Y+287482D01*
X-5908676Y+267277D01*
X-5949019Y+255253D01*
X-5989362Y+250226D01*
X-6000000Y+250000D01*
X-6500000Y+250000D02*
X-6500000Y+5250000D01*
X-6250000Y+5500000D02*
X-250000Y+5500000D01*
X+0Y+5250000D02*
X+0Y+250000D01*
X-250000Y+0D02*
X-6250000Y+0D01*
M02*
