G04 PROTEUS GERBER X2 FILE*
%TF.GenerationSoftware,Labcenter,Proteus,8.7-SP3-Build25561*%
%TF.CreationDate,2020-06-08T17:47:50+00:00*%
%TF.FileFunction,Soldermask,Bot*%
%TF.FilePolarity,Negative*%
%TF.Part,Single*%
%TF.SameCoordinates,{25e8a378-ae3c-4486-9c29-23821959b247}*%
%FSLAX45Y45*%
%MOMM*%
G01*
%TA.AperFunction,Material*%
%ADD32C,1.016000*%
%AMPPAD027*
4,1,36,
-1.143000,-1.016000,
-1.143000,1.016000,
-1.140470,1.041970,
-1.133200,1.065980,
-1.121650,1.087580,
-1.106290,1.106290,
-1.087570,1.121650,
-1.065980,1.133200,
-1.041970,1.140470,
-1.016000,1.143000,
1.016000,1.143000,
1.041970,1.140470,
1.065980,1.133200,
1.087570,1.121650,
1.106290,1.106290,
1.121650,1.087580,
1.133200,1.065980,
1.140470,1.041970,
1.143000,1.016000,
1.143000,-1.016000,
1.140470,-1.041970,
1.133200,-1.065980,
1.121650,-1.087580,
1.106290,-1.106290,
1.087570,-1.121650,
1.065980,-1.133200,
1.041970,-1.140470,
1.016000,-1.143000,
-1.016000,-1.143000,
-1.041970,-1.140470,
-1.065980,-1.133200,
-1.087570,-1.121650,
-1.106290,-1.106290,
-1.121650,-1.087580,
-1.133200,-1.065980,
-1.140470,-1.041970,
-1.143000,-1.016000,
0*%
%ADD33PPAD027*%
%TA.AperFunction,Material*%
%ADD35C,2.286000*%
%AMPPAD030*
4,1,36,
-0.762000,-0.635000,
-0.762000,0.635000,
-0.759470,0.660970,
-0.752200,0.684980,
-0.740650,0.706580,
-0.725290,0.725290,
-0.706570,0.740650,
-0.684980,0.752200,
-0.660970,0.759470,
-0.635000,0.762000,
0.635000,0.762000,
0.660970,0.759470,
0.684980,0.752200,
0.706570,0.740650,
0.725290,0.725290,
0.740650,0.706580,
0.752200,0.684980,
0.759470,0.660970,
0.762000,0.635000,
0.762000,-0.635000,
0.759470,-0.660970,
0.752200,-0.684980,
0.740650,-0.706580,
0.725290,-0.725290,
0.706570,-0.740650,
0.684980,-0.752200,
0.660970,-0.759470,
0.635000,-0.762000,
-0.635000,-0.762000,
-0.660970,-0.759470,
-0.684980,-0.752200,
-0.706570,-0.740650,
-0.725290,-0.725290,
-0.740650,-0.706580,
-0.752200,-0.684980,
-0.759470,-0.660970,
-0.762000,-0.635000,
0*%
%TA.AperFunction,Material*%
%ADD36PPAD030*%
%ADD37C,1.524000*%
%AMPPAD032*
4,1,4,
0.640000,0.640000,
0.640000,-0.640000,
-0.640000,-0.640000,
-0.640000,0.640000,
0.640000,0.640000,
0*%
%TA.AperFunction,Material*%
%ADD38PPAD032*%
%ADD39C,1.280000*%
%ADD41C,2.032000*%
%ADD42C,0.980000*%
%ADD45C,2.540000*%
%AMPPAD040*
4,1,36,
-1.016000,1.143000,
1.016000,1.143000,
1.041970,1.140470,
1.065980,1.133200,
1.087580,1.121650,
1.106290,1.106290,
1.121650,1.087570,
1.133200,1.065980,
1.140470,1.041970,
1.143000,1.016000,
1.143000,-1.016000,
1.140470,-1.041970,
1.133200,-1.065980,
1.121650,-1.087570,
1.106290,-1.106290,
1.087580,-1.121650,
1.065980,-1.133200,
1.041970,-1.140470,
1.016000,-1.143000,
-1.016000,-1.143000,
-1.041970,-1.140470,
-1.065980,-1.133200,
-1.087580,-1.121650,
-1.106290,-1.106290,
-1.121650,-1.087570,
-1.133200,-1.065980,
-1.140470,-1.041970,
-1.143000,-1.016000,
-1.143000,1.016000,
-1.140470,1.041970,
-1.133200,1.065980,
-1.121650,1.087570,
-1.106290,1.106290,
-1.087580,1.121650,
-1.065980,1.133200,
-1.041970,1.140470,
-1.016000,1.143000,
0*%
%TA.AperFunction,Material*%
%ADD46PPAD040*%
%TA.AperFunction,Profile*%
%ADD29C,0.203200*%
%TD.AperFunction*%
D32*
X-1524000Y+4127500D03*
X-1524000Y+1079500D03*
X-1143000Y+3175000D03*
X-4889500Y+3238500D03*
X-952500Y+2349500D03*
D33*
X-5500000Y+956000D03*
X-5500000Y+1210000D03*
X-750000Y+3210000D03*
X-750000Y+3464000D03*
D35*
X-750000Y+1956000D03*
X-750000Y+2464000D03*
X-750000Y+2210000D03*
D36*
X-3310000Y+766000D03*
D37*
X-3310000Y+1020000D03*
X-3310000Y+1274000D03*
X-3310000Y+1528000D03*
X-3310000Y+1782000D03*
X-3310000Y+2036000D03*
X-3310000Y+2290000D03*
X-3310000Y+2544000D03*
X-4072000Y+2544000D03*
X-4072000Y+2290000D03*
X-4072000Y+2036000D03*
X-4072000Y+1782000D03*
X-4072000Y+1528000D03*
X-4072000Y+1274000D03*
X-4072000Y+1020000D03*
X-4072000Y+766000D03*
D38*
X-2262000Y+3445000D03*
D39*
X-2262000Y+2945000D03*
D38*
X-2159000Y+4195000D03*
D39*
X-2159000Y+4695000D03*
D38*
X-3350000Y+4449000D03*
D39*
X-3000000Y+4449000D03*
D36*
X-2032000Y+782000D03*
D37*
X-2032000Y+1036000D03*
X-2032000Y+1290000D03*
X-2032000Y+1544000D03*
X-2794000Y+1544000D03*
X-2794000Y+1290000D03*
X-2794000Y+1036000D03*
X-2794000Y+782000D03*
D41*
X-1651000Y+2933000D03*
X-1651000Y+1917000D03*
D42*
X-2659000Y+2354000D03*
X-2659000Y+2504000D03*
D45*
X-4170000Y+4707000D03*
X-4170000Y+3691000D03*
D46*
X-5207000Y+4318000D03*
X-4953000Y+4318000D03*
X-4699000Y+4318000D03*
D29*
X-6500000Y+250000D02*
X-6495026Y+198883D01*
X-6480713Y+151611D01*
X-6457977Y+109100D01*
X-6427734Y+72266D01*
X-6390900Y+42023D01*
X-6348389Y+19287D01*
X-6301117Y+4974D01*
X-6250000Y+0D01*
X-6500000Y+5250000D02*
X-6495026Y+5301117D01*
X-6480713Y+5348389D01*
X-6457977Y+5390900D01*
X-6427734Y+5427734D01*
X-6390900Y+5457977D01*
X-6348389Y+5480713D01*
X-6301117Y+5495026D01*
X-6250000Y+5500000D01*
X-250000Y+5500000D02*
X-198883Y+5495026D01*
X-151611Y+5480713D01*
X-109100Y+5457977D01*
X-72266Y+5427734D01*
X-42023Y+5390900D01*
X-19287Y+5348389D01*
X-4974Y+5301117D01*
X+0Y+5250000D01*
X-250000Y+0D02*
X-198883Y+4974D01*
X-151611Y+19287D01*
X-109100Y+42023D01*
X-72266Y+72266D01*
X-42023Y+109100D01*
X-19287Y+151611D01*
X-4974Y+198883D01*
X+0Y+250000D01*
X-5750000Y+5000000D02*
X-5750815Y+5020171D01*
X-5757434Y+5060514D01*
X-5771247Y+5100857D01*
X-5793693Y+5141200D01*
X-5827990Y+5181418D01*
X-5868333Y+5212518D01*
X-5908676Y+5232723D01*
X-5949019Y+5244747D01*
X-5989362Y+5249774D01*
X-6000000Y+5250000D01*
X-6250000Y+5000000D02*
X-6249185Y+5020171D01*
X-6242566Y+5060514D01*
X-6228753Y+5100857D01*
X-6206307Y+5141200D01*
X-6172010Y+5181418D01*
X-6131667Y+5212518D01*
X-6091324Y+5232723D01*
X-6050981Y+5244747D01*
X-6010638Y+5249774D01*
X-6000000Y+5250000D01*
X-6250000Y+5000000D02*
X-6249185Y+4979829D01*
X-6242566Y+4939486D01*
X-6228753Y+4899143D01*
X-6206307Y+4858800D01*
X-6172010Y+4818582D01*
X-6131667Y+4787482D01*
X-6091324Y+4767277D01*
X-6050981Y+4755253D01*
X-6010638Y+4750226D01*
X-6000000Y+4750000D01*
X-5750000Y+5000000D02*
X-5750815Y+4979829D01*
X-5757434Y+4939486D01*
X-5771247Y+4899143D01*
X-5793693Y+4858800D01*
X-5827990Y+4818582D01*
X-5868333Y+4787482D01*
X-5908676Y+4767277D01*
X-5949019Y+4755253D01*
X-5989362Y+4750226D01*
X-6000000Y+4750000D01*
X-250000Y+5000000D02*
X-250815Y+5020171D01*
X-257434Y+5060514D01*
X-271247Y+5100857D01*
X-293693Y+5141200D01*
X-327990Y+5181418D01*
X-368333Y+5212518D01*
X-408676Y+5232723D01*
X-449019Y+5244747D01*
X-489362Y+5249774D01*
X-500000Y+5250000D01*
X-750000Y+5000000D02*
X-749185Y+5020171D01*
X-742566Y+5060514D01*
X-728753Y+5100857D01*
X-706307Y+5141200D01*
X-672010Y+5181418D01*
X-631667Y+5212518D01*
X-591324Y+5232723D01*
X-550981Y+5244747D01*
X-510638Y+5249774D01*
X-500000Y+5250000D01*
X-750000Y+5000000D02*
X-749185Y+4979829D01*
X-742566Y+4939486D01*
X-728753Y+4899143D01*
X-706307Y+4858800D01*
X-672010Y+4818582D01*
X-631667Y+4787482D01*
X-591324Y+4767277D01*
X-550981Y+4755253D01*
X-510638Y+4750226D01*
X-500000Y+4750000D01*
X-250000Y+5000000D02*
X-250815Y+4979829D01*
X-257434Y+4939486D01*
X-271247Y+4899143D01*
X-293693Y+4858800D01*
X-327990Y+4818582D01*
X-368333Y+4787482D01*
X-408676Y+4767277D01*
X-449019Y+4755253D01*
X-489362Y+4750226D01*
X-500000Y+4750000D01*
X-250000Y+500000D02*
X-250815Y+520171D01*
X-257434Y+560514D01*
X-271247Y+600857D01*
X-293693Y+641200D01*
X-327990Y+681418D01*
X-368333Y+712518D01*
X-408676Y+732723D01*
X-449019Y+744747D01*
X-489362Y+749774D01*
X-500000Y+750000D01*
X-750000Y+500000D02*
X-749185Y+520171D01*
X-742566Y+560514D01*
X-728753Y+600857D01*
X-706307Y+641200D01*
X-672010Y+681418D01*
X-631667Y+712518D01*
X-591324Y+732723D01*
X-550981Y+744747D01*
X-510638Y+749774D01*
X-500000Y+750000D01*
X-750000Y+500000D02*
X-749185Y+479829D01*
X-742566Y+439486D01*
X-728753Y+399143D01*
X-706307Y+358800D01*
X-672010Y+318582D01*
X-631667Y+287482D01*
X-591324Y+267277D01*
X-550981Y+255253D01*
X-510638Y+250226D01*
X-500000Y+250000D01*
X-250000Y+500000D02*
X-250815Y+479829D01*
X-257434Y+439486D01*
X-271247Y+399143D01*
X-293693Y+358800D01*
X-327990Y+318582D01*
X-368333Y+287482D01*
X-408676Y+267277D01*
X-449019Y+255253D01*
X-489362Y+250226D01*
X-500000Y+250000D01*
X-5750000Y+500000D02*
X-5750815Y+520171D01*
X-5757434Y+560514D01*
X-5771247Y+600857D01*
X-5793693Y+641200D01*
X-5827990Y+681418D01*
X-5868333Y+712518D01*
X-5908676Y+732723D01*
X-5949019Y+744747D01*
X-5989362Y+749774D01*
X-6000000Y+750000D01*
X-6250000Y+500000D02*
X-6249185Y+520171D01*
X-6242566Y+560514D01*
X-6228753Y+600857D01*
X-6206307Y+641200D01*
X-6172010Y+681418D01*
X-6131667Y+712518D01*
X-6091324Y+732723D01*
X-6050981Y+744747D01*
X-6010638Y+749774D01*
X-6000000Y+750000D01*
X-6250000Y+500000D02*
X-6249185Y+479829D01*
X-6242566Y+439486D01*
X-6228753Y+399143D01*
X-6206307Y+358800D01*
X-6172010Y+318582D01*
X-6131667Y+287482D01*
X-6091324Y+267277D01*
X-6050981Y+255253D01*
X-6010638Y+250226D01*
X-6000000Y+250000D01*
X-5750000Y+500000D02*
X-5750815Y+479829D01*
X-5757434Y+439486D01*
X-5771247Y+399143D01*
X-5793693Y+358800D01*
X-5827990Y+318582D01*
X-5868333Y+287482D01*
X-5908676Y+267277D01*
X-5949019Y+255253D01*
X-5989362Y+250226D01*
X-6000000Y+250000D01*
X-6500000Y+250000D02*
X-6500000Y+5250000D01*
X-6250000Y+5500000D02*
X-250000Y+5500000D01*
X+0Y+5250000D02*
X+0Y+250000D01*
X-250000Y+0D02*
X-6250000Y+0D01*
M02*
