G04 PROTEUS GERBER X2 FILE*
%TF.GenerationSoftware,Labcenter,Proteus,8.7-SP3-Build25561*%
%TF.CreationDate,2020-06-08T17:47:50+00:00*%
%TF.FileFunction,AssemblyDrawing,Top*%
%TF.FilePolarity,Positive*%
%TF.Part,Single*%
%TF.SameCoordinates,{25e8a378-ae3c-4486-9c29-23821959b247}*%
%FSLAX45Y45*%
%MOMM*%
G01*
%TA.AperFunction,Material*%
%ADD72C,0.203200*%
%ADD59C,0.164590*%
%ADD60C,0.050000*%
%ADD61C,0.195000*%
%ADD62C,0.227330*%
%TA.AperFunction,Profile*%
%ADD29C,0.203200*%
%TA.AperFunction,Material*%
%ADD63C,0.533400*%
%ADD64C,0.351660*%
%ADD65C,0.285000*%
%ADD66C,0.259080*%
%ADD67C,0.245000*%
%ADD68C,0.121920*%
%ADD69C,0.151660*%
%ADD74C,0.305000*%
%ADD75C,0.237000*%
%ADD76C,0.172210*%
%ADD77C,0.240790*%
%ADD78C,0.057000*%
%ADD79C,0.063000*%
%TD.AperFunction*%
D72*
X-5637160Y+818840D02*
X-5362840Y+818840D01*
X-5362840Y+1347160D01*
X-5637160Y+1347160D01*
X-5637160Y+818840D01*
D59*
X-5483540Y+951327D02*
X-5467081Y+951327D01*
X-5450622Y+967786D01*
X-5450622Y+1033622D01*
X-5467081Y+1050081D01*
X-5549377Y+1050081D01*
X-5532918Y+1099459D02*
X-5549377Y+1115918D01*
X-5549377Y+1165295D01*
X-5532918Y+1181754D01*
X-5516459Y+1181754D01*
X-5500000Y+1165295D01*
X-5500000Y+1115918D01*
X-5483540Y+1099459D01*
X-5450622Y+1099459D01*
X-5450622Y+1181754D01*
D60*
X-5660000Y+2730000D02*
X-5660000Y+2090000D01*
X-5340000Y+2090000D01*
X-5340000Y+2730000D01*
X-5660000Y+2730000D01*
X-5450000Y+2410000D02*
X-5550000Y+2410000D01*
X-5500000Y+2360000D02*
X-5500000Y+2460000D01*
D61*
X-5441500Y+2254000D02*
X-5558500Y+2254000D01*
X-5558500Y+2351500D01*
X-5539000Y+2371000D01*
X-5519500Y+2371000D01*
X-5500000Y+2351500D01*
X-5500000Y+2254000D01*
X-5500000Y+2351500D02*
X-5480500Y+2371000D01*
X-5441500Y+2371000D01*
X-5539000Y+2429500D02*
X-5558500Y+2449000D01*
X-5558500Y+2507500D01*
X-5539000Y+2527000D01*
X-5519500Y+2527000D01*
X-5500000Y+2507500D01*
X-5480500Y+2527000D01*
X-5461000Y+2527000D01*
X-5441500Y+2507500D01*
X-5441500Y+2449000D01*
X-5461000Y+2429500D01*
X-5500000Y+2468500D02*
X-5500000Y+2507500D01*
D72*
X-887160Y+3072840D02*
X-612840Y+3072840D01*
X-612840Y+3601160D01*
X-887160Y+3601160D01*
X-887160Y+3072840D01*
D59*
X-733540Y+3205327D02*
X-717081Y+3205327D01*
X-700622Y+3221786D01*
X-700622Y+3287622D01*
X-717081Y+3304081D01*
X-799377Y+3304081D01*
X-766459Y+3369918D02*
X-799377Y+3402836D01*
X-700622Y+3402836D01*
D72*
X-950660Y+1755340D02*
X-549340Y+1755340D01*
X-549340Y+2664660D01*
X-950660Y+2664660D01*
X-950660Y+1755340D01*
D62*
X-681801Y+1937204D02*
X-818199Y+1937204D01*
X-818199Y+2050869D01*
X-795466Y+2073602D01*
X-772733Y+2073602D01*
X-750000Y+2050869D01*
X-750000Y+1937204D01*
X-750000Y+2050869D02*
X-727267Y+2073602D01*
X-681801Y+2073602D01*
X-818199Y+2119068D02*
X-750000Y+2119068D01*
X-681801Y+2187267D01*
X-750000Y+2255466D01*
X-818199Y+2255466D01*
X-772733Y+2346398D02*
X-818199Y+2391864D01*
X-681801Y+2391864D01*
D29*
X-6500000Y+250000D02*
X-6495026Y+198883D01*
X-6480713Y+151611D01*
X-6457977Y+109100D01*
X-6427734Y+72266D01*
X-6390900Y+42023D01*
X-6348389Y+19287D01*
X-6301117Y+4974D01*
X-6250000Y+0D01*
X-6500000Y+5250000D02*
X-6495026Y+5301117D01*
X-6480713Y+5348389D01*
X-6457977Y+5390900D01*
X-6427734Y+5427734D01*
X-6390900Y+5457977D01*
X-6348389Y+5480713D01*
X-6301117Y+5495026D01*
X-6250000Y+5500000D01*
X-250000Y+5500000D02*
X-198883Y+5495026D01*
X-151611Y+5480713D01*
X-109100Y+5457977D01*
X-72266Y+5427734D01*
X-42023Y+5390900D01*
X-19287Y+5348389D01*
X-4974Y+5301117D01*
X+0Y+5250000D01*
X-250000Y+0D02*
X-198883Y+4974D01*
X-151611Y+19287D01*
X-109100Y+42023D01*
X-72266Y+72266D01*
X-42023Y+109100D01*
X-19287Y+151611D01*
X-4974Y+198883D01*
X+0Y+250000D01*
X-5750000Y+5000000D02*
X-5750815Y+5020171D01*
X-5757434Y+5060514D01*
X-5771247Y+5100857D01*
X-5793693Y+5141200D01*
X-5827990Y+5181418D01*
X-5868333Y+5212518D01*
X-5908676Y+5232723D01*
X-5949019Y+5244747D01*
X-5989362Y+5249774D01*
X-6000000Y+5250000D01*
X-6250000Y+5000000D02*
X-6249185Y+5020171D01*
X-6242566Y+5060514D01*
X-6228753Y+5100857D01*
X-6206307Y+5141200D01*
X-6172010Y+5181418D01*
X-6131667Y+5212518D01*
X-6091324Y+5232723D01*
X-6050981Y+5244747D01*
X-6010638Y+5249774D01*
X-6000000Y+5250000D01*
X-6250000Y+5000000D02*
X-6249185Y+4979829D01*
X-6242566Y+4939486D01*
X-6228753Y+4899143D01*
X-6206307Y+4858800D01*
X-6172010Y+4818582D01*
X-6131667Y+4787482D01*
X-6091324Y+4767277D01*
X-6050981Y+4755253D01*
X-6010638Y+4750226D01*
X-6000000Y+4750000D01*
X-5750000Y+5000000D02*
X-5750815Y+4979829D01*
X-5757434Y+4939486D01*
X-5771247Y+4899143D01*
X-5793693Y+4858800D01*
X-5827990Y+4818582D01*
X-5868333Y+4787482D01*
X-5908676Y+4767277D01*
X-5949019Y+4755253D01*
X-5989362Y+4750226D01*
X-6000000Y+4750000D01*
X-250000Y+5000000D02*
X-250815Y+5020171D01*
X-257434Y+5060514D01*
X-271247Y+5100857D01*
X-293693Y+5141200D01*
X-327990Y+5181418D01*
X-368333Y+5212518D01*
X-408676Y+5232723D01*
X-449019Y+5244747D01*
X-489362Y+5249774D01*
X-500000Y+5250000D01*
X-750000Y+5000000D02*
X-749185Y+5020171D01*
X-742566Y+5060514D01*
X-728753Y+5100857D01*
X-706307Y+5141200D01*
X-672010Y+5181418D01*
X-631667Y+5212518D01*
X-591324Y+5232723D01*
X-550981Y+5244747D01*
X-510638Y+5249774D01*
X-500000Y+5250000D01*
X-750000Y+5000000D02*
X-749185Y+4979829D01*
X-742566Y+4939486D01*
X-728753Y+4899143D01*
X-706307Y+4858800D01*
X-672010Y+4818582D01*
X-631667Y+4787482D01*
X-591324Y+4767277D01*
X-550981Y+4755253D01*
X-510638Y+4750226D01*
X-500000Y+4750000D01*
X-250000Y+5000000D02*
X-250815Y+4979829D01*
X-257434Y+4939486D01*
X-271247Y+4899143D01*
X-293693Y+4858800D01*
X-327990Y+4818582D01*
X-368333Y+4787482D01*
X-408676Y+4767277D01*
X-449019Y+4755253D01*
X-489362Y+4750226D01*
X-500000Y+4750000D01*
X-250000Y+500000D02*
X-250815Y+520171D01*
X-257434Y+560514D01*
X-271247Y+600857D01*
X-293693Y+641200D01*
X-327990Y+681418D01*
X-368333Y+712518D01*
X-408676Y+732723D01*
X-449019Y+744747D01*
X-489362Y+749774D01*
X-500000Y+750000D01*
X-750000Y+500000D02*
X-749185Y+520171D01*
X-742566Y+560514D01*
X-728753Y+600857D01*
X-706307Y+641200D01*
X-672010Y+681418D01*
X-631667Y+712518D01*
X-591324Y+732723D01*
X-550981Y+744747D01*
X-510638Y+749774D01*
X-500000Y+750000D01*
X-750000Y+500000D02*
X-749185Y+479829D01*
X-742566Y+439486D01*
X-728753Y+399143D01*
X-706307Y+358800D01*
X-672010Y+318582D01*
X-631667Y+287482D01*
X-591324Y+267277D01*
X-550981Y+255253D01*
X-510638Y+250226D01*
X-500000Y+250000D01*
X-250000Y+500000D02*
X-250815Y+479829D01*
X-257434Y+439486D01*
X-271247Y+399143D01*
X-293693Y+358800D01*
X-327990Y+318582D01*
X-368333Y+287482D01*
X-408676Y+267277D01*
X-449019Y+255253D01*
X-489362Y+250226D01*
X-500000Y+250000D01*
X-5750000Y+500000D02*
X-5750815Y+520171D01*
X-5757434Y+560514D01*
X-5771247Y+600857D01*
X-5793693Y+641200D01*
X-5827990Y+681418D01*
X-5868333Y+712518D01*
X-5908676Y+732723D01*
X-5949019Y+744747D01*
X-5989362Y+749774D01*
X-6000000Y+750000D01*
X-6250000Y+500000D02*
X-6249185Y+520171D01*
X-6242566Y+560514D01*
X-6228753Y+600857D01*
X-6206307Y+641200D01*
X-6172010Y+681418D01*
X-6131667Y+712518D01*
X-6091324Y+732723D01*
X-6050981Y+744747D01*
X-6010638Y+749774D01*
X-6000000Y+750000D01*
X-6250000Y+500000D02*
X-6249185Y+479829D01*
X-6242566Y+439486D01*
X-6228753Y+399143D01*
X-6206307Y+358800D01*
X-6172010Y+318582D01*
X-6131667Y+287482D01*
X-6091324Y+267277D01*
X-6050981Y+255253D01*
X-6010638Y+250226D01*
X-6000000Y+250000D01*
X-5750000Y+500000D02*
X-5750815Y+479829D01*
X-5757434Y+439486D01*
X-5771247Y+399143D01*
X-5793693Y+358800D01*
X-5827990Y+318582D01*
X-5868333Y+287482D01*
X-5908676Y+267277D01*
X-5949019Y+255253D01*
X-5989362Y+250226D01*
X-6000000Y+250000D01*
X-6500000Y+250000D02*
X-6500000Y+5250000D01*
X-6250000Y+5500000D02*
X-250000Y+5500000D01*
X+0Y+5250000D02*
X+0Y+250000D01*
X-250000Y+0D02*
X-6250000Y+0D01*
D72*
X-4135500Y+628840D02*
X-3246500Y+628840D01*
X-3246500Y+2681160D01*
X-4135500Y+2681160D01*
X-4135500Y+628840D01*
D63*
X-3851020Y+1228280D02*
X-3584320Y+1228280D01*
X-3530980Y+1281620D01*
X-3530980Y+1494980D01*
X-3584320Y+1548320D01*
X-3851020Y+1548320D01*
X-3744340Y+1761680D02*
X-3851020Y+1868360D01*
X-3530980Y+1868360D01*
D60*
X-2237000Y+3195000D02*
X-2237086Y+3197076D01*
X-2237788Y+3201229D01*
X-2239258Y+3205382D01*
X-2241660Y+3209535D01*
X-2245333Y+3213634D01*
X-2249486Y+3216643D01*
X-2253639Y+3218560D01*
X-2257792Y+3219643D01*
X-2261945Y+3220000D01*
X-2262000Y+3220000D01*
X-2287000Y+3195000D02*
X-2286914Y+3197076D01*
X-2286212Y+3201229D01*
X-2284742Y+3205382D01*
X-2282340Y+3209535D01*
X-2278667Y+3213634D01*
X-2274514Y+3216643D01*
X-2270361Y+3218560D01*
X-2266208Y+3219643D01*
X-2262055Y+3220000D01*
X-2262000Y+3220000D01*
X-2287000Y+3195000D02*
X-2286914Y+3192924D01*
X-2286212Y+3188771D01*
X-2284742Y+3184618D01*
X-2282340Y+3180465D01*
X-2278667Y+3176366D01*
X-2274514Y+3173357D01*
X-2270361Y+3171440D01*
X-2266208Y+3170357D01*
X-2262055Y+3170000D01*
X-2262000Y+3170000D01*
X-2237000Y+3195000D02*
X-2237086Y+3192924D01*
X-2237788Y+3188771D01*
X-2239258Y+3184618D01*
X-2241660Y+3180465D01*
X-2245333Y+3176366D01*
X-2249486Y+3173357D01*
X-2253639Y+3171440D01*
X-2257792Y+3170357D01*
X-2261945Y+3170000D01*
X-2262000Y+3170000D01*
X-2262000Y+3160000D02*
X-2262000Y+3230000D01*
X-2227000Y+3195000D02*
X-2297000Y+3195000D01*
X-1737000Y+3720000D02*
X-2262000Y+3720000D01*
X-2316562Y+3717348D01*
X-2369345Y+3709554D01*
X-2420110Y+3696857D01*
X-2468616Y+3679497D01*
X-2514622Y+3657715D01*
X-2557889Y+3631752D01*
X-2598176Y+3601848D01*
X-2635242Y+3568242D01*
X-2668848Y+3531176D01*
X-2698752Y+3490889D01*
X-2724715Y+3447622D01*
X-2746497Y+3401616D01*
X-2763857Y+3353110D01*
X-2776554Y+3302345D01*
X-2784348Y+3249562D01*
X-2787000Y+3195000D01*
X-2784348Y+3140438D01*
X-2776554Y+3087655D01*
X-2763857Y+3036890D01*
X-2746497Y+2988384D01*
X-2724715Y+2942378D01*
X-2698752Y+2899111D01*
X-2668848Y+2858824D01*
X-2635242Y+2821758D01*
X-2598176Y+2788152D01*
X-2557889Y+2758248D01*
X-2514622Y+2732285D01*
X-2468616Y+2710503D01*
X-2420110Y+2693143D01*
X-2369345Y+2680446D01*
X-2316562Y+2672652D01*
X-2262000Y+2670000D01*
X-2207438Y+2672652D01*
X-2154655Y+2680446D01*
X-2103890Y+2693143D01*
X-2055384Y+2710503D01*
X-2009378Y+2732285D01*
X-1966111Y+2758248D01*
X-1925824Y+2788152D01*
X-1888758Y+2821758D01*
X-1855152Y+2858824D01*
X-1825248Y+2899111D01*
X-1799285Y+2942378D01*
X-1777503Y+2988384D01*
X-1760143Y+3036890D01*
X-1747446Y+3087655D01*
X-1739652Y+3140438D01*
X-1737000Y+3195000D01*
X-1737000Y+3720000D01*
D64*
X-2191666Y+3124667D02*
X-2156500Y+3089500D01*
X-2156500Y+2984001D01*
X-2226833Y+2913668D01*
X-2297166Y+2913668D01*
X-2367499Y+2984001D01*
X-2367499Y+3089500D01*
X-2332333Y+3124667D01*
X-2332333Y+3405999D02*
X-2367499Y+3370832D01*
X-2367499Y+3265333D01*
X-2332333Y+3230166D01*
X-2191666Y+3230166D01*
X-2156500Y+3265333D01*
X-2156500Y+3370832D01*
X-2191666Y+3405999D01*
X-2226833Y+3405999D01*
X-2262000Y+3370832D01*
X-2262000Y+3230166D01*
D60*
X-2134000Y+4445000D02*
X-2134086Y+4447076D01*
X-2134788Y+4451229D01*
X-2136258Y+4455382D01*
X-2138660Y+4459535D01*
X-2142333Y+4463634D01*
X-2146486Y+4466643D01*
X-2150639Y+4468560D01*
X-2154792Y+4469643D01*
X-2158945Y+4470000D01*
X-2159000Y+4470000D01*
X-2184000Y+4445000D02*
X-2183914Y+4447076D01*
X-2183212Y+4451229D01*
X-2181742Y+4455382D01*
X-2179340Y+4459535D01*
X-2175667Y+4463634D01*
X-2171514Y+4466643D01*
X-2167361Y+4468560D01*
X-2163208Y+4469643D01*
X-2159055Y+4470000D01*
X-2159000Y+4470000D01*
X-2184000Y+4445000D02*
X-2183914Y+4442924D01*
X-2183212Y+4438771D01*
X-2181742Y+4434618D01*
X-2179340Y+4430465D01*
X-2175667Y+4426366D01*
X-2171514Y+4423357D01*
X-2167361Y+4421440D01*
X-2163208Y+4420357D01*
X-2159055Y+4420000D01*
X-2159000Y+4420000D01*
X-2134000Y+4445000D02*
X-2134086Y+4442924D01*
X-2134788Y+4438771D01*
X-2136258Y+4434618D01*
X-2138660Y+4430465D01*
X-2142333Y+4426366D01*
X-2146486Y+4423357D01*
X-2150639Y+4421440D01*
X-2154792Y+4420357D01*
X-2158945Y+4420000D01*
X-2159000Y+4420000D01*
X-2159000Y+4480000D02*
X-2159000Y+4410000D01*
X-2194000Y+4445000D02*
X-2124000Y+4445000D01*
X-2684000Y+3920000D02*
X-2159000Y+3920000D01*
X-2104438Y+3922652D01*
X-2051655Y+3930446D01*
X-2000890Y+3943143D01*
X-1952384Y+3960503D01*
X-1906378Y+3982285D01*
X-1863111Y+4008248D01*
X-1822824Y+4038152D01*
X-1785758Y+4071758D01*
X-1752152Y+4108824D01*
X-1722248Y+4149111D01*
X-1696285Y+4192378D01*
X-1674503Y+4238384D01*
X-1657143Y+4286890D01*
X-1644446Y+4337655D01*
X-1636652Y+4390438D01*
X-1634000Y+4445000D01*
X-1636652Y+4499562D01*
X-1644446Y+4552345D01*
X-1657143Y+4603110D01*
X-1674503Y+4651616D01*
X-1696285Y+4697622D01*
X-1722248Y+4740889D01*
X-1752152Y+4781176D01*
X-1785758Y+4818242D01*
X-1822824Y+4851848D01*
X-1863111Y+4881752D01*
X-1906378Y+4907715D01*
X-1952384Y+4929497D01*
X-2000890Y+4946857D01*
X-2051655Y+4959554D01*
X-2104438Y+4967348D01*
X-2159000Y+4970000D01*
X-2213562Y+4967348D01*
X-2266345Y+4959554D01*
X-2317110Y+4946857D01*
X-2365616Y+4929497D01*
X-2411622Y+4907715D01*
X-2454889Y+4881752D01*
X-2495176Y+4851848D01*
X-2532242Y+4818242D01*
X-2565848Y+4781176D01*
X-2595752Y+4740889D01*
X-2621715Y+4697622D01*
X-2643497Y+4651616D01*
X-2660857Y+4603110D01*
X-2673554Y+4552345D01*
X-2681348Y+4499562D01*
X-2684000Y+4445000D01*
X-2684000Y+3920000D01*
D64*
X-2088666Y+4374667D02*
X-2053500Y+4339500D01*
X-2053500Y+4234001D01*
X-2123833Y+4163668D01*
X-2194166Y+4163668D01*
X-2264499Y+4234001D01*
X-2264499Y+4339500D01*
X-2229333Y+4374667D01*
X-2159000Y+4515333D02*
X-2194166Y+4480166D01*
X-2229333Y+4480166D01*
X-2264499Y+4515333D01*
X-2264499Y+4620832D01*
X-2229333Y+4655999D01*
X-2194166Y+4655999D01*
X-2159000Y+4620832D01*
X-2159000Y+4515333D01*
X-2123833Y+4480166D01*
X-2088666Y+4480166D01*
X-2053500Y+4515333D01*
X-2053500Y+4620832D01*
X-2088666Y+4655999D01*
X-2123833Y+4655999D01*
X-2159000Y+4620832D01*
D60*
X-3150000Y+4449000D02*
X-3150086Y+4451076D01*
X-3150788Y+4455229D01*
X-3152258Y+4459382D01*
X-3154660Y+4463535D01*
X-3158333Y+4467634D01*
X-3162486Y+4470643D01*
X-3166639Y+4472560D01*
X-3170792Y+4473643D01*
X-3174945Y+4474000D01*
X-3175000Y+4474000D01*
X-3200000Y+4449000D02*
X-3199914Y+4451076D01*
X-3199212Y+4455229D01*
X-3197742Y+4459382D01*
X-3195340Y+4463535D01*
X-3191667Y+4467634D01*
X-3187514Y+4470643D01*
X-3183361Y+4472560D01*
X-3179208Y+4473643D01*
X-3175055Y+4474000D01*
X-3175000Y+4474000D01*
X-3200000Y+4449000D02*
X-3199914Y+4446924D01*
X-3199212Y+4442771D01*
X-3197742Y+4438618D01*
X-3195340Y+4434465D01*
X-3191667Y+4430366D01*
X-3187514Y+4427357D01*
X-3183361Y+4425440D01*
X-3179208Y+4424357D01*
X-3175055Y+4424000D01*
X-3175000Y+4424000D01*
X-3150000Y+4449000D02*
X-3150086Y+4446924D01*
X-3150788Y+4442771D01*
X-3152258Y+4438618D01*
X-3154660Y+4434465D01*
X-3158333Y+4430366D01*
X-3162486Y+4427357D01*
X-3166639Y+4425440D01*
X-3170792Y+4424357D01*
X-3174945Y+4424000D01*
X-3175000Y+4424000D01*
X-3140000Y+4449000D02*
X-3210000Y+4449000D01*
X-3175000Y+4484000D02*
X-3175000Y+4414000D01*
X-3600000Y+4874000D02*
X-3600000Y+4449000D01*
X-3597854Y+4404831D01*
X-3591544Y+4362101D01*
X-3581265Y+4321006D01*
X-3567212Y+4281739D01*
X-3549579Y+4244496D01*
X-3528561Y+4209471D01*
X-3504353Y+4176858D01*
X-3477148Y+4146852D01*
X-3447142Y+4119647D01*
X-3414529Y+4095439D01*
X-3379504Y+4074421D01*
X-3342260Y+4056788D01*
X-3302994Y+4042735D01*
X-3261899Y+4032456D01*
X-3219169Y+4026147D01*
X-3175000Y+4024000D01*
X-3130831Y+4026147D01*
X-3088101Y+4032456D01*
X-3047006Y+4042735D01*
X-3007740Y+4056788D01*
X-2970496Y+4074421D01*
X-2935471Y+4095439D01*
X-2902858Y+4119647D01*
X-2872852Y+4146852D01*
X-2845647Y+4176858D01*
X-2821439Y+4209471D01*
X-2800421Y+4244496D01*
X-2782788Y+4281739D01*
X-2768735Y+4321006D01*
X-2758456Y+4362101D01*
X-2752146Y+4404831D01*
X-2750000Y+4449000D01*
X-2752146Y+4493169D01*
X-2758456Y+4535899D01*
X-2768735Y+4576994D01*
X-2782788Y+4616261D01*
X-2800421Y+4653504D01*
X-2821439Y+4688529D01*
X-2845647Y+4721142D01*
X-2872852Y+4751148D01*
X-2902858Y+4778353D01*
X-2935471Y+4802561D01*
X-2970496Y+4823579D01*
X-3007740Y+4841212D01*
X-3047006Y+4855265D01*
X-3088101Y+4865544D01*
X-3130831Y+4871853D01*
X-3175000Y+4874000D01*
X-3600000Y+4874000D01*
D65*
X-3232000Y+4392000D02*
X-3260500Y+4363500D01*
X-3346000Y+4363500D01*
X-3403000Y+4420500D01*
X-3403000Y+4477500D01*
X-3346000Y+4534500D01*
X-3260500Y+4534500D01*
X-3232000Y+4506000D01*
X-3004000Y+4420500D02*
X-3175000Y+4420500D01*
X-3061000Y+4534500D01*
X-3061000Y+4363500D01*
D72*
X-2857500Y+644840D02*
X-1968500Y+644840D01*
X-1968500Y+1681160D01*
X-2857500Y+1681160D01*
X-2857500Y+644840D01*
D66*
X-2490724Y+1007552D02*
X-2490724Y+878012D01*
X-2438908Y+878012D01*
X-2438908Y+981644D01*
X-2413000Y+1007552D01*
X-2361184Y+1007552D01*
X-2335276Y+981644D01*
X-2335276Y+903920D01*
X-2361184Y+878012D01*
X-2490724Y+1214816D02*
X-2490724Y+1085276D01*
X-2438908Y+1085276D01*
X-2438908Y+1188908D01*
X-2413000Y+1214816D01*
X-2361184Y+1214816D01*
X-2335276Y+1188908D01*
X-2335276Y+1111184D01*
X-2361184Y+1085276D01*
X-2490724Y+1422080D02*
X-2490724Y+1292540D01*
X-2438908Y+1292540D01*
X-2438908Y+1396172D01*
X-2413000Y+1422080D01*
X-2361184Y+1422080D01*
X-2335276Y+1396172D01*
X-2335276Y+1318448D01*
X-2361184Y+1292540D01*
D72*
X-5612260Y+2943000D02*
X-4753740Y+2943000D01*
X-4753740Y+3923000D01*
X-5612260Y+3923000D01*
X-5612260Y+2943000D01*
D67*
X-5109500Y+3139000D02*
X-5256500Y+3139000D01*
X-5256500Y+3261500D01*
X-5232000Y+3286000D01*
X-5207500Y+3286000D01*
X-5183000Y+3261500D01*
X-5158500Y+3286000D01*
X-5134000Y+3286000D01*
X-5109500Y+3261500D01*
X-5109500Y+3139000D01*
X-5183000Y+3139000D02*
X-5183000Y+3261500D01*
X-5109500Y+3335000D02*
X-5256500Y+3335000D01*
X-5256500Y+3457500D01*
X-5232000Y+3482000D01*
X-5207500Y+3482000D01*
X-5183000Y+3457500D01*
X-5183000Y+3335000D01*
X-5183000Y+3457500D02*
X-5158500Y+3482000D01*
X-5109500Y+3482000D01*
X-5207500Y+3580000D02*
X-5256500Y+3629000D01*
X-5109500Y+3629000D01*
D72*
X-1752600Y+1828100D02*
X-1549400Y+1828100D01*
X-1549400Y+3021900D01*
X-1752600Y+3021900D01*
X-1752600Y+1828100D01*
D68*
X-1614424Y+2327464D02*
X-1687576Y+2327464D01*
X-1687576Y+2376232D01*
X-1663192Y+2400616D01*
X-1638808Y+2400616D01*
X-1614424Y+2376232D01*
X-1614424Y+2327464D01*
X-1663192Y+2449384D02*
X-1687576Y+2473768D01*
X-1614424Y+2473768D01*
D60*
X-2434000Y+2429000D02*
X-2434738Y+2447211D01*
X-2440734Y+2483635D01*
X-2453250Y+2520059D01*
X-2473600Y+2556483D01*
X-2504709Y+2592766D01*
X-2541133Y+2620657D01*
X-2577557Y+2638743D01*
X-2613981Y+2649450D01*
X-2650405Y+2653836D01*
X-2659000Y+2654000D01*
X-2884000Y+2429000D02*
X-2883262Y+2447211D01*
X-2877266Y+2483635D01*
X-2864750Y+2520059D01*
X-2844400Y+2556483D01*
X-2813291Y+2592766D01*
X-2776867Y+2620657D01*
X-2740443Y+2638743D01*
X-2704019Y+2649450D01*
X-2667595Y+2653836D01*
X-2659000Y+2654000D01*
X-2884000Y+2429000D02*
X-2883262Y+2410789D01*
X-2877266Y+2374365D01*
X-2864750Y+2337941D01*
X-2844400Y+2301517D01*
X-2813291Y+2265234D01*
X-2776867Y+2237343D01*
X-2740443Y+2219257D01*
X-2704019Y+2208550D01*
X-2667595Y+2204164D01*
X-2659000Y+2204000D01*
X-2434000Y+2429000D02*
X-2434738Y+2410789D01*
X-2440734Y+2374365D01*
X-2453250Y+2337941D01*
X-2473600Y+2301517D01*
X-2504709Y+2265234D01*
X-2541133Y+2237343D01*
X-2577557Y+2219257D01*
X-2613981Y+2208550D01*
X-2650405Y+2204164D01*
X-2659000Y+2204000D01*
X-2634000Y+2429000D02*
X-2634086Y+2431076D01*
X-2634788Y+2435229D01*
X-2636258Y+2439382D01*
X-2638660Y+2443535D01*
X-2642333Y+2447634D01*
X-2646486Y+2450643D01*
X-2650639Y+2452560D01*
X-2654792Y+2453643D01*
X-2658945Y+2454000D01*
X-2659000Y+2454000D01*
X-2684000Y+2429000D02*
X-2683914Y+2431076D01*
X-2683212Y+2435229D01*
X-2681742Y+2439382D01*
X-2679340Y+2443535D01*
X-2675667Y+2447634D01*
X-2671514Y+2450643D01*
X-2667361Y+2452560D01*
X-2663208Y+2453643D01*
X-2659055Y+2454000D01*
X-2659000Y+2454000D01*
X-2684000Y+2429000D02*
X-2683914Y+2426924D01*
X-2683212Y+2422771D01*
X-2681742Y+2418618D01*
X-2679340Y+2414465D01*
X-2675667Y+2410366D01*
X-2671514Y+2407357D01*
X-2667361Y+2405440D01*
X-2663208Y+2404357D01*
X-2659055Y+2404000D01*
X-2659000Y+2404000D01*
X-2634000Y+2429000D02*
X-2634086Y+2426924D01*
X-2634788Y+2422771D01*
X-2636258Y+2418618D01*
X-2638660Y+2414465D01*
X-2642333Y+2410366D01*
X-2646486Y+2407357D01*
X-2650639Y+2405440D01*
X-2654792Y+2404357D01*
X-2658945Y+2404000D01*
X-2659000Y+2404000D01*
X-2659000Y+2464000D02*
X-2659000Y+2394000D01*
X-2694000Y+2429000D02*
X-2624000Y+2429000D01*
D69*
X-2628666Y+2398667D02*
X-2613500Y+2383500D01*
X-2613500Y+2338001D01*
X-2643833Y+2307668D01*
X-2674166Y+2307668D01*
X-2704499Y+2338001D01*
X-2704499Y+2383500D01*
X-2689333Y+2398667D01*
X-2674166Y+2459333D02*
X-2704499Y+2489666D01*
X-2613500Y+2489666D01*
D60*
X-1411000Y+4043000D02*
X-501000Y+4043000D01*
X-501000Y+4553000D01*
X-1411000Y+4553000D01*
X-1411000Y+4043000D01*
X-956000Y+4348000D02*
X-956000Y+4248000D01*
X-906000Y+4298000D02*
X-1006000Y+4298000D01*
D74*
X-1017000Y+4237000D02*
X-1047500Y+4206500D01*
X-1139000Y+4206500D01*
X-1200000Y+4267500D01*
X-1200000Y+4328500D01*
X-1139000Y+4389500D01*
X-1047500Y+4389500D01*
X-1017000Y+4359000D01*
X-925500Y+4359000D02*
X-895000Y+4389500D01*
X-803500Y+4389500D01*
X-773000Y+4359000D01*
X-773000Y+4328500D01*
X-803500Y+4298000D01*
X-773000Y+4267500D01*
X-773000Y+4237000D01*
X-803500Y+4206500D01*
X-895000Y+4206500D01*
X-925500Y+4237000D01*
X-864500Y+4298000D02*
X-803500Y+4298000D01*
D60*
X-3365000Y+2855000D02*
X-3365000Y+3645000D01*
X-3755000Y+3645000D01*
X-3755000Y+2855000D01*
X-3365000Y+2855000D01*
X-3610000Y+3250000D02*
X-3510000Y+3250000D01*
X-3560000Y+3300000D02*
X-3560000Y+3200000D01*
D75*
X-3488900Y+3060400D02*
X-3631100Y+3060400D01*
X-3631100Y+3178900D01*
X-3607400Y+3202600D01*
X-3583700Y+3202600D01*
X-3560000Y+3178900D01*
X-3560000Y+3060400D01*
X-3560000Y+3178900D02*
X-3536300Y+3202600D01*
X-3488900Y+3202600D01*
X-3631100Y+3392200D02*
X-3631100Y+3273700D01*
X-3583700Y+3273700D01*
X-3583700Y+3368500D01*
X-3560000Y+3392200D01*
X-3512600Y+3392200D01*
X-3488900Y+3368500D01*
X-3488900Y+3297400D01*
X-3512600Y+3273700D01*
D72*
X-4314780Y+3576700D02*
X-4027760Y+3576700D01*
X-4027760Y+4821300D01*
X-4314780Y+4821300D01*
X-4314780Y+3576700D01*
D76*
X-4119606Y+4061231D02*
X-4222933Y+4061231D01*
X-4222933Y+4130115D01*
X-4188491Y+4164557D01*
X-4154048Y+4164557D01*
X-4119606Y+4130115D01*
X-4119606Y+4061231D01*
X-4205712Y+4216221D02*
X-4222933Y+4233442D01*
X-4222933Y+4285105D01*
X-4205712Y+4302326D01*
X-4188491Y+4302326D01*
X-4171270Y+4285105D01*
X-4171270Y+4233442D01*
X-4154048Y+4216221D01*
X-4119606Y+4216221D01*
X-4119606Y+4302326D01*
D72*
X-5344160Y+4180840D02*
X-4561840Y+4180840D01*
X-4561840Y+4582160D01*
X-5344160Y+4582160D01*
X-5344160Y+4180840D01*
D77*
X-5145633Y+4405579D02*
X-5097475Y+4453737D01*
X-5049317Y+4453737D01*
X-5001159Y+4405579D01*
X-5001159Y+4357420D01*
X-5049317Y+4309262D01*
X-5097475Y+4309262D01*
X-5145633Y+4357420D01*
X-5145633Y+4405579D01*
X-5049317Y+4357420D02*
X-5001159Y+4309262D01*
X-4904842Y+4405579D02*
X-4856684Y+4453737D01*
X-4856684Y+4309262D01*
D60*
X-1613000Y+1122000D02*
X-973000Y+1122000D01*
X-973000Y+1442000D01*
X-1613000Y+1442000D01*
X-1613000Y+1122000D01*
X-1293000Y+1332000D02*
X-1293000Y+1232000D01*
X-1243000Y+1282000D02*
X-1343000Y+1282000D01*
D61*
X-1449000Y+1223500D02*
X-1449000Y+1340500D01*
X-1351500Y+1340500D01*
X-1332000Y+1321000D01*
X-1332000Y+1301500D01*
X-1351500Y+1282000D01*
X-1449000Y+1282000D01*
X-1351500Y+1282000D02*
X-1332000Y+1262500D01*
X-1332000Y+1223500D01*
X-1273500Y+1321000D02*
X-1254000Y+1340500D01*
X-1195500Y+1340500D01*
X-1176000Y+1321000D01*
X-1176000Y+1301500D01*
X-1195500Y+1282000D01*
X-1254000Y+1282000D01*
X-1273500Y+1262500D01*
X-1273500Y+1223500D01*
X-1176000Y+1223500D01*
D60*
X-4340000Y+2945000D02*
X-4340000Y+3585000D01*
X-4660000Y+3585000D01*
X-4660000Y+2945000D01*
X-4340000Y+2945000D01*
X-4550000Y+3265000D02*
X-4450000Y+3265000D01*
X-4500000Y+3315000D02*
X-4500000Y+3215000D01*
D61*
X-4441500Y+3109000D02*
X-4558500Y+3109000D01*
X-4558500Y+3206500D01*
X-4539000Y+3226000D01*
X-4519500Y+3226000D01*
X-4500000Y+3206500D01*
X-4500000Y+3109000D01*
X-4500000Y+3206500D02*
X-4480500Y+3226000D01*
X-4441500Y+3226000D01*
X-4480500Y+3382000D02*
X-4480500Y+3265000D01*
X-4558500Y+3343000D01*
X-4441500Y+3343000D01*
D60*
X-1188000Y+2495000D02*
X-998000Y+2495000D01*
X-998000Y+2585000D01*
X-1188000Y+2585000D01*
X-1188000Y+2495000D01*
X-1093000Y+2565000D02*
X-1093000Y+2515000D01*
X-1068000Y+2540000D02*
X-1118000Y+2540000D01*
D78*
X-1138600Y+2522900D02*
X-1138600Y+2557100D01*
X-1110100Y+2557100D01*
X-1104400Y+2551400D01*
X-1104400Y+2545700D01*
X-1110100Y+2540000D01*
X-1138600Y+2540000D01*
X-1110100Y+2540000D02*
X-1104400Y+2534300D01*
X-1104400Y+2522900D01*
X-1081600Y+2545700D02*
X-1070200Y+2557100D01*
X-1070200Y+2522900D01*
D60*
X-1225000Y+3220000D02*
X-1405000Y+3220000D01*
X-1405000Y+3130000D01*
X-1225000Y+3130000D01*
X-1225000Y+3220000D01*
X-1315000Y+3150000D02*
X-1315000Y+3200000D01*
X-1340000Y+3175000D02*
X-1290000Y+3175000D01*
D78*
X-1326400Y+3163600D02*
X-1332100Y+3157900D01*
X-1349200Y+3157900D01*
X-1360600Y+3169300D01*
X-1360600Y+3180700D01*
X-1349200Y+3192100D01*
X-1332100Y+3192100D01*
X-1326400Y+3186400D01*
X-1309300Y+3186400D02*
X-1303600Y+3192100D01*
X-1286500Y+3192100D01*
X-1280800Y+3186400D01*
X-1280800Y+3180700D01*
X-1286500Y+3175000D01*
X-1303600Y+3175000D01*
X-1309300Y+3169300D01*
X-1309300Y+3157900D01*
X-1280800Y+3157900D01*
D60*
X-2950000Y+3800000D02*
X-3140000Y+3800000D01*
X-3140000Y+3700000D01*
X-2950000Y+3700000D01*
X-2950000Y+3800000D01*
X-3045000Y+3725000D02*
X-3045000Y+3775000D01*
X-3070000Y+3750000D02*
X-3020000Y+3750000D01*
D79*
X-3095400Y+3768900D02*
X-3095400Y+3731100D01*
X-3057600Y+3731100D01*
X-3032400Y+3756300D02*
X-3019800Y+3768900D01*
X-3019800Y+3731100D01*
D60*
X-4340000Y+2195000D02*
X-4340000Y+2835000D01*
X-4660000Y+2835000D01*
X-4660000Y+2195000D01*
X-4340000Y+2195000D01*
X-4550000Y+2515000D02*
X-4450000Y+2515000D01*
X-4500000Y+2565000D02*
X-4500000Y+2465000D01*
D61*
X-4441500Y+2359000D02*
X-4558500Y+2359000D01*
X-4558500Y+2456500D01*
X-4539000Y+2476000D01*
X-4519500Y+2476000D01*
X-4500000Y+2456500D01*
X-4500000Y+2359000D01*
X-4500000Y+2456500D02*
X-4480500Y+2476000D01*
X-4441500Y+2476000D01*
X-4539000Y+2632000D02*
X-4558500Y+2612500D01*
X-4558500Y+2554000D01*
X-4539000Y+2534500D01*
X-4461000Y+2534500D01*
X-4441500Y+2554000D01*
X-4441500Y+2612500D01*
X-4461000Y+2632000D01*
X-4480500Y+2632000D01*
X-4500000Y+2612500D01*
X-4500000Y+2534500D01*
D60*
X-4660000Y+2055000D02*
X-4660000Y+1415000D01*
X-4340000Y+1415000D01*
X-4340000Y+2055000D01*
X-4660000Y+2055000D01*
X-4450000Y+1735000D02*
X-4550000Y+1735000D01*
X-4500000Y+1685000D02*
X-4500000Y+1785000D01*
D61*
X-4441500Y+1579000D02*
X-4558500Y+1579000D01*
X-4558500Y+1676500D01*
X-4539000Y+1696000D01*
X-4519500Y+1696000D01*
X-4500000Y+1676500D01*
X-4500000Y+1579000D01*
X-4500000Y+1676500D02*
X-4480500Y+1696000D01*
X-4441500Y+1696000D01*
X-4558500Y+1754500D02*
X-4558500Y+1852000D01*
X-4539000Y+1852000D01*
X-4441500Y+1754500D01*
M02*
