G04 PROTEUS GERBER X2 FILE*
%TF.GenerationSoftware,Labcenter,Proteus,8.7-SP3-Build25561*%
%TF.CreationDate,2020-06-08T17:47:50+00:00*%
%TF.FileFunction,Copper,L2,Bot*%
%TF.FilePolarity,Positive*%
%TF.Part,Single*%
%TF.SameCoordinates,{25e8a378-ae3c-4486-9c29-23821959b247}*%
%FSLAX45Y45*%
%MOMM*%
G01*
%TA.AperFunction,Conductor*%
%ADD10C,0.254000*%
%TA.AperFunction,ViaPad*%
%ADD13C,0.762000*%
%TA.AperFunction,ComponentPad*%
%ADD14R,2.032000X2.032000*%
%TA.AperFunction,ComponentPad*%
%ADD16C,2.032000*%
%TA.AperFunction,ComponentPad*%
%ADD17R,1.270000X1.270000*%
%ADD18C,1.270000*%
%TA.AperFunction,WasherPad*%
%ADD19R,1.280000X1.280000*%
%TA.AperFunction,ComponentPad*%
%ADD70C,1.280000*%
%ADD20C,1.778000*%
%ADD21C,0.980000*%
%ADD24C,2.286000*%
%TA.AperFunction,Profile*%
%ADD29C,0.203200*%
%TD.AperFunction*%
D10*
X-2032000Y+1544000D02*
X-2179000Y+1397000D01*
X-2921000Y+1397000D01*
X-2984500Y+1333500D01*
X-2984500Y+972500D01*
X-2794000Y+782000D01*
X-2032000Y+1544000D02*
X-2032000Y+1841500D01*
X-1956500Y+1917000D01*
X-1651000Y+1917000D01*
X-1524000Y+2044000D01*
X-1524000Y+4127500D01*
X-1524000Y+1079500D02*
X-1587500Y+1143000D01*
X-2687000Y+1143000D01*
X-2794000Y+1036000D01*
X-2032000Y+1036000D02*
X-1885000Y+889000D01*
X-1206500Y+889000D01*
X-1143000Y+952500D01*
X-1143000Y+2159000D01*
X-1079500Y+2222500D01*
X-750000Y+2210000D02*
X-1067000Y+2210000D01*
X-1079500Y+2222500D01*
X-750000Y+2210000D02*
X-750000Y+1956000D01*
X-1079500Y+2222500D02*
X-1143000Y+2286000D01*
X-1143000Y+3175000D01*
X-3310000Y+1020000D02*
X-3433000Y+1143000D01*
X-5143500Y+1143000D01*
X-5207000Y+1206500D01*
X-5207000Y+4318000D01*
X-3350000Y+4449000D02*
X-3350000Y+3810000D01*
X-3469000Y+3691000D01*
X-4170000Y+3691000D01*
X-4437000Y+3691000D01*
X-4889500Y+3238500D01*
X-2159000Y+4195000D02*
X-2262000Y+4092000D01*
X-2262000Y+3445000D01*
X-2159000Y+4695000D02*
X-2405000Y+4449000D01*
X-3000000Y+4449000D01*
X-952500Y+2349500D02*
X-952500Y+3007500D01*
X-750000Y+3210000D01*
D13*
X-1524000Y+4127500D03*
X-1524000Y+1079500D03*
X-1143000Y+3175000D03*
X-4889500Y+3238500D03*
X-952500Y+2349500D03*
D14*
X-5500000Y+956000D03*
X-5500000Y+1210000D03*
X-750000Y+3210000D03*
X-750000Y+3464000D03*
D16*
X-750000Y+1956000D03*
X-750000Y+2464000D03*
X-750000Y+2210000D03*
D17*
X-3310000Y+766000D03*
D18*
X-3310000Y+1020000D03*
X-3310000Y+1274000D03*
X-3310000Y+1528000D03*
X-3310000Y+1782000D03*
X-3310000Y+2036000D03*
X-3310000Y+2290000D03*
X-3310000Y+2544000D03*
X-4072000Y+2544000D03*
X-4072000Y+2290000D03*
X-4072000Y+2036000D03*
X-4072000Y+1782000D03*
X-4072000Y+1528000D03*
X-4072000Y+1274000D03*
X-4072000Y+1020000D03*
X-4072000Y+766000D03*
D19*
X-2262000Y+3445000D03*
D70*
X-2262000Y+2945000D03*
D19*
X-2159000Y+4195000D03*
D70*
X-2159000Y+4695000D03*
D19*
X-3350000Y+4449000D03*
D70*
X-3000000Y+4449000D03*
D17*
X-2032000Y+782000D03*
D18*
X-2032000Y+1036000D03*
X-2032000Y+1290000D03*
X-2032000Y+1544000D03*
X-2794000Y+1544000D03*
X-2794000Y+1290000D03*
X-2794000Y+1036000D03*
X-2794000Y+782000D03*
D20*
X-1651000Y+2933000D03*
X-1651000Y+1917000D03*
D21*
X-2659000Y+2354000D03*
X-2659000Y+2504000D03*
D24*
X-4170000Y+4707000D03*
X-4170000Y+3691000D03*
D14*
X-5207000Y+4318000D03*
X-4953000Y+4318000D03*
X-4699000Y+4318000D03*
D29*
X-6500000Y+250000D02*
X-6495026Y+198883D01*
X-6480713Y+151611D01*
X-6457977Y+109100D01*
X-6427734Y+72266D01*
X-6390900Y+42023D01*
X-6348389Y+19287D01*
X-6301117Y+4974D01*
X-6250000Y+0D01*
X-6500000Y+5250000D02*
X-6495026Y+5301117D01*
X-6480713Y+5348389D01*
X-6457977Y+5390900D01*
X-6427734Y+5427734D01*
X-6390900Y+5457977D01*
X-6348389Y+5480713D01*
X-6301117Y+5495026D01*
X-6250000Y+5500000D01*
X-250000Y+5500000D02*
X-198883Y+5495026D01*
X-151611Y+5480713D01*
X-109100Y+5457977D01*
X-72266Y+5427734D01*
X-42023Y+5390900D01*
X-19287Y+5348389D01*
X-4974Y+5301117D01*
X+0Y+5250000D01*
X-250000Y+0D02*
X-198883Y+4974D01*
X-151611Y+19287D01*
X-109100Y+42023D01*
X-72266Y+72266D01*
X-42023Y+109100D01*
X-19287Y+151611D01*
X-4974Y+198883D01*
X+0Y+250000D01*
X-5750000Y+5000000D02*
X-5750815Y+5020171D01*
X-5757434Y+5060514D01*
X-5771247Y+5100857D01*
X-5793693Y+5141200D01*
X-5827990Y+5181418D01*
X-5868333Y+5212518D01*
X-5908676Y+5232723D01*
X-5949019Y+5244747D01*
X-5989362Y+5249774D01*
X-6000000Y+5250000D01*
X-6250000Y+5000000D02*
X-6249185Y+5020171D01*
X-6242566Y+5060514D01*
X-6228753Y+5100857D01*
X-6206307Y+5141200D01*
X-6172010Y+5181418D01*
X-6131667Y+5212518D01*
X-6091324Y+5232723D01*
X-6050981Y+5244747D01*
X-6010638Y+5249774D01*
X-6000000Y+5250000D01*
X-6250000Y+5000000D02*
X-6249185Y+4979829D01*
X-6242566Y+4939486D01*
X-6228753Y+4899143D01*
X-6206307Y+4858800D01*
X-6172010Y+4818582D01*
X-6131667Y+4787482D01*
X-6091324Y+4767277D01*
X-6050981Y+4755253D01*
X-6010638Y+4750226D01*
X-6000000Y+4750000D01*
X-5750000Y+5000000D02*
X-5750815Y+4979829D01*
X-5757434Y+4939486D01*
X-5771247Y+4899143D01*
X-5793693Y+4858800D01*
X-5827990Y+4818582D01*
X-5868333Y+4787482D01*
X-5908676Y+4767277D01*
X-5949019Y+4755253D01*
X-5989362Y+4750226D01*
X-6000000Y+4750000D01*
X-250000Y+5000000D02*
X-250815Y+5020171D01*
X-257434Y+5060514D01*
X-271247Y+5100857D01*
X-293693Y+5141200D01*
X-327990Y+5181418D01*
X-368333Y+5212518D01*
X-408676Y+5232723D01*
X-449019Y+5244747D01*
X-489362Y+5249774D01*
X-500000Y+5250000D01*
X-750000Y+5000000D02*
X-749185Y+5020171D01*
X-742566Y+5060514D01*
X-728753Y+5100857D01*
X-706307Y+5141200D01*
X-672010Y+5181418D01*
X-631667Y+5212518D01*
X-591324Y+5232723D01*
X-550981Y+5244747D01*
X-510638Y+5249774D01*
X-500000Y+5250000D01*
X-750000Y+5000000D02*
X-749185Y+4979829D01*
X-742566Y+4939486D01*
X-728753Y+4899143D01*
X-706307Y+4858800D01*
X-672010Y+4818582D01*
X-631667Y+4787482D01*
X-591324Y+4767277D01*
X-550981Y+4755253D01*
X-510638Y+4750226D01*
X-500000Y+4750000D01*
X-250000Y+5000000D02*
X-250815Y+4979829D01*
X-257434Y+4939486D01*
X-271247Y+4899143D01*
X-293693Y+4858800D01*
X-327990Y+4818582D01*
X-368333Y+4787482D01*
X-408676Y+4767277D01*
X-449019Y+4755253D01*
X-489362Y+4750226D01*
X-500000Y+4750000D01*
X-250000Y+500000D02*
X-250815Y+520171D01*
X-257434Y+560514D01*
X-271247Y+600857D01*
X-293693Y+641200D01*
X-327990Y+681418D01*
X-368333Y+712518D01*
X-408676Y+732723D01*
X-449019Y+744747D01*
X-489362Y+749774D01*
X-500000Y+750000D01*
X-750000Y+500000D02*
X-749185Y+520171D01*
X-742566Y+560514D01*
X-728753Y+600857D01*
X-706307Y+641200D01*
X-672010Y+681418D01*
X-631667Y+712518D01*
X-591324Y+732723D01*
X-550981Y+744747D01*
X-510638Y+749774D01*
X-500000Y+750000D01*
X-750000Y+500000D02*
X-749185Y+479829D01*
X-742566Y+439486D01*
X-728753Y+399143D01*
X-706307Y+358800D01*
X-672010Y+318582D01*
X-631667Y+287482D01*
X-591324Y+267277D01*
X-550981Y+255253D01*
X-510638Y+250226D01*
X-500000Y+250000D01*
X-250000Y+500000D02*
X-250815Y+479829D01*
X-257434Y+439486D01*
X-271247Y+399143D01*
X-293693Y+358800D01*
X-327990Y+318582D01*
X-368333Y+287482D01*
X-408676Y+267277D01*
X-449019Y+255253D01*
X-489362Y+250226D01*
X-500000Y+250000D01*
X-5750000Y+500000D02*
X-5750815Y+520171D01*
X-5757434Y+560514D01*
X-5771247Y+600857D01*
X-5793693Y+641200D01*
X-5827990Y+681418D01*
X-5868333Y+712518D01*
X-5908676Y+732723D01*
X-5949019Y+744747D01*
X-5989362Y+749774D01*
X-6000000Y+750000D01*
X-6250000Y+500000D02*
X-6249185Y+520171D01*
X-6242566Y+560514D01*
X-6228753Y+600857D01*
X-6206307Y+641200D01*
X-6172010Y+681418D01*
X-6131667Y+712518D01*
X-6091324Y+732723D01*
X-6050981Y+744747D01*
X-6010638Y+749774D01*
X-6000000Y+750000D01*
X-6250000Y+500000D02*
X-6249185Y+479829D01*
X-6242566Y+439486D01*
X-6228753Y+399143D01*
X-6206307Y+358800D01*
X-6172010Y+318582D01*
X-6131667Y+287482D01*
X-6091324Y+267277D01*
X-6050981Y+255253D01*
X-6010638Y+250226D01*
X-6000000Y+250000D01*
X-5750000Y+500000D02*
X-5750815Y+479829D01*
X-5757434Y+439486D01*
X-5771247Y+399143D01*
X-5793693Y+358800D01*
X-5827990Y+318582D01*
X-5868333Y+287482D01*
X-5908676Y+267277D01*
X-5949019Y+255253D01*
X-5989362Y+250226D01*
X-6000000Y+250000D01*
X-6500000Y+250000D02*
X-6500000Y+5250000D01*
X-6250000Y+5500000D02*
X-250000Y+5500000D01*
X+0Y+5250000D02*
X+0Y+250000D01*
X-250000Y+0D02*
X-6250000Y+0D01*
M02*
