G04 PROTEUS GERBER X2 FILE*
%TF.GenerationSoftware,Labcenter,Proteus,8.7-SP3-Build25561*%
%TF.CreationDate,2020-06-08T17:47:50+00:00*%
%TF.FileFunction,Paste,Top*%
%TF.FilePolarity,Positive*%
%TF.Part,Single*%
%TF.SameCoordinates,{25e8a378-ae3c-4486-9c29-23821959b247}*%
%FSLAX45Y45*%
%MOMM*%
G01*
%TA.AperFunction,Material*%
%ADD51R,2.692400X1.193800*%
%TA.AperFunction,Material*%
%ADD52R,1.200000X2.200000*%
%TA.AperFunction,Material*%
%ADD53R,2.362200X2.438400*%
%ADD54R,3.403600X1.244600*%
%ADD55R,1.193800X2.692400*%
%ADD56R,0.558800X0.609600*%
%ADD57R,0.609600X0.609600*%
%ADD58R,0.660400X0.660400*%
%TA.AperFunction,Profile*%
%ADD29C,0.203200*%
%TD.AperFunction*%
D51*
X-5500000Y+2645000D03*
X-5500000Y+2175000D03*
D52*
X-4929000Y+3813000D03*
X-5437000Y+3813000D03*
X-4929000Y+3053000D03*
X-5437000Y+3053000D03*
D53*
X-1266000Y+4298000D03*
X-646000Y+4298000D03*
D54*
X-3560000Y+2945000D03*
X-3560000Y+3555000D03*
D55*
X-1528000Y+1282000D03*
X-1058000Y+1282000D03*
D51*
X-4500000Y+3030000D03*
X-4500000Y+3500000D03*
D56*
X-1143000Y+2540000D03*
X-1043000Y+2540000D03*
D57*
X-1270000Y+3175000D03*
X-1360000Y+3175000D03*
D58*
X-3000000Y+3750000D03*
X-3090000Y+3750000D03*
D51*
X-4500000Y+2280000D03*
X-4500000Y+2750000D03*
X-4500000Y+1970000D03*
X-4500000Y+1500000D03*
D29*
X-6500000Y+250000D02*
X-6495026Y+198883D01*
X-6480713Y+151611D01*
X-6457977Y+109100D01*
X-6427734Y+72266D01*
X-6390900Y+42023D01*
X-6348389Y+19287D01*
X-6301117Y+4974D01*
X-6250000Y+0D01*
X-6500000Y+5250000D02*
X-6495026Y+5301117D01*
X-6480713Y+5348389D01*
X-6457977Y+5390900D01*
X-6427734Y+5427734D01*
X-6390900Y+5457977D01*
X-6348389Y+5480713D01*
X-6301117Y+5495026D01*
X-6250000Y+5500000D01*
X-250000Y+5500000D02*
X-198883Y+5495026D01*
X-151611Y+5480713D01*
X-109100Y+5457977D01*
X-72266Y+5427734D01*
X-42023Y+5390900D01*
X-19287Y+5348389D01*
X-4974Y+5301117D01*
X+0Y+5250000D01*
X-250000Y+0D02*
X-198883Y+4974D01*
X-151611Y+19287D01*
X-109100Y+42023D01*
X-72266Y+72266D01*
X-42023Y+109100D01*
X-19287Y+151611D01*
X-4974Y+198883D01*
X+0Y+250000D01*
X-5750000Y+5000000D02*
X-5750815Y+5020171D01*
X-5757434Y+5060514D01*
X-5771247Y+5100857D01*
X-5793693Y+5141200D01*
X-5827990Y+5181418D01*
X-5868333Y+5212518D01*
X-5908676Y+5232723D01*
X-5949019Y+5244747D01*
X-5989362Y+5249774D01*
X-6000000Y+5250000D01*
X-6250000Y+5000000D02*
X-6249185Y+5020171D01*
X-6242566Y+5060514D01*
X-6228753Y+5100857D01*
X-6206307Y+5141200D01*
X-6172010Y+5181418D01*
X-6131667Y+5212518D01*
X-6091324Y+5232723D01*
X-6050981Y+5244747D01*
X-6010638Y+5249774D01*
X-6000000Y+5250000D01*
X-6250000Y+5000000D02*
X-6249185Y+4979829D01*
X-6242566Y+4939486D01*
X-6228753Y+4899143D01*
X-6206307Y+4858800D01*
X-6172010Y+4818582D01*
X-6131667Y+4787482D01*
X-6091324Y+4767277D01*
X-6050981Y+4755253D01*
X-6010638Y+4750226D01*
X-6000000Y+4750000D01*
X-5750000Y+5000000D02*
X-5750815Y+4979829D01*
X-5757434Y+4939486D01*
X-5771247Y+4899143D01*
X-5793693Y+4858800D01*
X-5827990Y+4818582D01*
X-5868333Y+4787482D01*
X-5908676Y+4767277D01*
X-5949019Y+4755253D01*
X-5989362Y+4750226D01*
X-6000000Y+4750000D01*
X-250000Y+5000000D02*
X-250815Y+5020171D01*
X-257434Y+5060514D01*
X-271247Y+5100857D01*
X-293693Y+5141200D01*
X-327990Y+5181418D01*
X-368333Y+5212518D01*
X-408676Y+5232723D01*
X-449019Y+5244747D01*
X-489362Y+5249774D01*
X-500000Y+5250000D01*
X-750000Y+5000000D02*
X-749185Y+5020171D01*
X-742566Y+5060514D01*
X-728753Y+5100857D01*
X-706307Y+5141200D01*
X-672010Y+5181418D01*
X-631667Y+5212518D01*
X-591324Y+5232723D01*
X-550981Y+5244747D01*
X-510638Y+5249774D01*
X-500000Y+5250000D01*
X-750000Y+5000000D02*
X-749185Y+4979829D01*
X-742566Y+4939486D01*
X-728753Y+4899143D01*
X-706307Y+4858800D01*
X-672010Y+4818582D01*
X-631667Y+4787482D01*
X-591324Y+4767277D01*
X-550981Y+4755253D01*
X-510638Y+4750226D01*
X-500000Y+4750000D01*
X-250000Y+5000000D02*
X-250815Y+4979829D01*
X-257434Y+4939486D01*
X-271247Y+4899143D01*
X-293693Y+4858800D01*
X-327990Y+4818582D01*
X-368333Y+4787482D01*
X-408676Y+4767277D01*
X-449019Y+4755253D01*
X-489362Y+4750226D01*
X-500000Y+4750000D01*
X-250000Y+500000D02*
X-250815Y+520171D01*
X-257434Y+560514D01*
X-271247Y+600857D01*
X-293693Y+641200D01*
X-327990Y+681418D01*
X-368333Y+712518D01*
X-408676Y+732723D01*
X-449019Y+744747D01*
X-489362Y+749774D01*
X-500000Y+750000D01*
X-750000Y+500000D02*
X-749185Y+520171D01*
X-742566Y+560514D01*
X-728753Y+600857D01*
X-706307Y+641200D01*
X-672010Y+681418D01*
X-631667Y+712518D01*
X-591324Y+732723D01*
X-550981Y+744747D01*
X-510638Y+749774D01*
X-500000Y+750000D01*
X-750000Y+500000D02*
X-749185Y+479829D01*
X-742566Y+439486D01*
X-728753Y+399143D01*
X-706307Y+358800D01*
X-672010Y+318582D01*
X-631667Y+287482D01*
X-591324Y+267277D01*
X-550981Y+255253D01*
X-510638Y+250226D01*
X-500000Y+250000D01*
X-250000Y+500000D02*
X-250815Y+479829D01*
X-257434Y+439486D01*
X-271247Y+399143D01*
X-293693Y+358800D01*
X-327990Y+318582D01*
X-368333Y+287482D01*
X-408676Y+267277D01*
X-449019Y+255253D01*
X-489362Y+250226D01*
X-500000Y+250000D01*
X-5750000Y+500000D02*
X-5750815Y+520171D01*
X-5757434Y+560514D01*
X-5771247Y+600857D01*
X-5793693Y+641200D01*
X-5827990Y+681418D01*
X-5868333Y+712518D01*
X-5908676Y+732723D01*
X-5949019Y+744747D01*
X-5989362Y+749774D01*
X-6000000Y+750000D01*
X-6250000Y+500000D02*
X-6249185Y+520171D01*
X-6242566Y+560514D01*
X-6228753Y+600857D01*
X-6206307Y+641200D01*
X-6172010Y+681418D01*
X-6131667Y+712518D01*
X-6091324Y+732723D01*
X-6050981Y+744747D01*
X-6010638Y+749774D01*
X-6000000Y+750000D01*
X-6250000Y+500000D02*
X-6249185Y+479829D01*
X-6242566Y+439486D01*
X-6228753Y+399143D01*
X-6206307Y+358800D01*
X-6172010Y+318582D01*
X-6131667Y+287482D01*
X-6091324Y+267277D01*
X-6050981Y+255253D01*
X-6010638Y+250226D01*
X-6000000Y+250000D01*
X-5750000Y+500000D02*
X-5750815Y+479829D01*
X-5757434Y+439486D01*
X-5771247Y+399143D01*
X-5793693Y+358800D01*
X-5827990Y+318582D01*
X-5868333Y+287482D01*
X-5908676Y+267277D01*
X-5949019Y+255253D01*
X-5989362Y+250226D01*
X-6000000Y+250000D01*
X-6500000Y+250000D02*
X-6500000Y+5250000D01*
X-6250000Y+5500000D02*
X-250000Y+5500000D01*
X+0Y+5250000D02*
X+0Y+250000D01*
X-250000Y+0D02*
X-6250000Y+0D01*
M02*
