G04 PROTEUS GERBER X2 FILE*
%TF.GenerationSoftware,Labcenter,Proteus,8.7-SP3-Build25561*%
%TF.CreationDate,2020-06-08T17:47:50+00:00*%
%TF.FileFunction,Plated,1,2,PTH*%
%TF.FilePolarity,Positive*%
%TF.Part,Single*%
%TF.SameCoordinates,{25e8a378-ae3c-4486-9c29-23821959b247}*%
%FSLAX45Y45*%
%MOMM*%
G01*
%TA.AperFunction,ViaDrill*%
%ADD80C,0.381000*%
%TA.AperFunction,ComponentDrill*%
%ADD81C,1.016000*%
%TA.AperFunction,ComponentDrill*%
%ADD82C,0.762000*%
%TA.AperFunction,ComponentDrill*%
%ADD83C,0.850000*%
%ADD84C,0.650000*%
%TD.AperFunction*%
D80*
X-1524000Y+4127500D03*
X-1524000Y+1079500D03*
X-1143000Y+3175000D03*
X-4889500Y+3238500D03*
X-952500Y+2349500D03*
D81*
X-5500000Y+956000D03*
X-5500000Y+1210000D03*
X-750000Y+3210000D03*
X-750000Y+3464000D03*
D82*
X-750000Y+1956000D03*
X-750000Y+2464000D03*
X-750000Y+2210000D03*
X-3310000Y+766000D03*
X-3310000Y+1020000D03*
X-3310000Y+1274000D03*
X-3310000Y+1528000D03*
X-3310000Y+1782000D03*
X-3310000Y+2036000D03*
X-3310000Y+2290000D03*
X-3310000Y+2544000D03*
X-4072000Y+2544000D03*
X-4072000Y+2290000D03*
X-4072000Y+2036000D03*
X-4072000Y+1782000D03*
X-4072000Y+1528000D03*
X-4072000Y+1274000D03*
X-4072000Y+1020000D03*
X-4072000Y+766000D03*
D83*
X-2262000Y+3445000D03*
X-2262000Y+2945000D03*
X-2159000Y+4195000D03*
X-2159000Y+4695000D03*
X-3350000Y+4449000D03*
X-3000000Y+4449000D03*
D82*
X-2032000Y+782000D03*
X-2032000Y+1036000D03*
X-2032000Y+1290000D03*
X-2032000Y+1544000D03*
X-2794000Y+1544000D03*
X-2794000Y+1290000D03*
X-2794000Y+1036000D03*
X-2794000Y+782000D03*
X-1651000Y+2933000D03*
X-1651000Y+1917000D03*
D84*
X-2659000Y+2354000D03*
X-2659000Y+2504000D03*
D81*
X-4170000Y+4707000D03*
X-4170000Y+3691000D03*
X-5207000Y+4318000D03*
X-4953000Y+4318000D03*
X-4699000Y+4318000D03*
M02*
