  0
SECTION
  2
HEADER
  9
$ACADVER
  1
AC1009
  9
$INSUNITS
 70
     1
  0
ENDSEC
  0
SECTION
  2
TABLES
  0
TABLE
  2
LAYER
 70
     8
  0
LAYER
  2
0
 62
     7
 70
0
  6
CONTINUOUS
  0
LAYER
  2
1
 62
     1
 70
0
  6
CONTINUOUS
  0
LAYER
  2
2
 62
     2
 70
0
  6
CONTINUOUS
  0
LAYER
  2
3
 62
     3
 70
0
  6
CONTINUOUS
  0
LAYER
  2
4
 62
     4
 70
0
  6
CONTINUOUS
  0
LAYER
  2
5
 62
     5
 70
0
  6
CONTINUOUS
  0
LAYER
  2
6
 62
     6
 70
0
  6
CONTINUOUS
  0
LAYER
  2
7
 62
     7
 70
0
  6
CONTINUOUS
  0
ENDTAB
  0
TABLE
  2
STYLE
 70
     1
  0
STYLE
 70
     0
  2
STANDARD
  3
TXT
 40
0.00
 41
1.00
 42
1.00
 50
0.00
 71
     0
  0
ENDTAB
  0
ENDSEC
  0
SECTION
  2
BLOCKS
  0
BLOCK
  8
0
  2
EPAD
 70
0
 10
0.0
 20
0.0
  0
POLYLINE
  8
0
 66
1
 70
1
 40
0.5
 41
0.5
  0
VERTEX
  8
0
 10
-0.25
 20
0.0
 42
1.0
  0
VERTEX
  8
0
 10
0.25
 20
0.0
 42
1.0
  0
SEQEND
  8
0
  0
ENDBLK
  8
0
  0
BLOCK
  8
0
  2
RPAD
 70
0
 10
0.0
 20
0.0
  0
TRACE
  8
0
 10
-0.5
 20
-0.5
 11
-0.5
 21
0.5
 12
0.5
 22
-0.5
 13
0.5
 23
0.5
  0
ENDBLK
  8
0
  0
ENDSEC
0
SECTION
2
ENTITIES
0
POLYLINE
8
0
66
1
40
0.016000
41
0.016000
0
VERTEX
8
0
10
-3.400000
20
0.100000
0
VERTEX
8
0
10
-3.900000
20
0.100000
0
VERTEX
8
0
10
-3.900000
20
-0.300000
0
SEQEND
8
0
0
POLYLINE
8
0
66
1
40
0.016000
41
0.016000
0
VERTEX
8
0
10
-3.900000
20
-0.700000
0
VERTEX
8
0
10
-3.900000
20
-1.200000
0
SEQEND
8
0
0
POLYLINE
8
0
66
1
40
0.016000
41
0.016000
0
VERTEX
8
0
10
-4.300000
20
-0.700000
0
VERTEX
8
0
10
-4.300000
20
-1.200000
0
VERTEX
8
0
10
-3.900000
20
-1.200000
0
SEQEND
8
0
0
POLYLINE
8
0
66
1
40
0.016000
41
0.016000
0
VERTEX
8
0
10
-3.400000
20
-0.300000
0
VERTEX
8
0
10
-3.500000
20
-0.300000
0
SEQEND
8
0
0
POLYLINE
8
0
66
1
40
0.016000
41
0.016000
0
VERTEX
8
0
10
-2.400000
20
-0.300000
0
VERTEX
8
0
10
-2.100000
20
-0.300000
0
VERTEX
8
0
10
-2.100000
20
-0.800000
0
VERTEX
8
0
10
-3.500000
20
-0.800000
0
VERTEX
8
0
10
-3.500000
20
-0.300000
0
SEQEND
8
0
0
POLYLINE
8
0
66
1
40
0.016000
41
0.016000
0
VERTEX
8
0
10
-3.900000
20
-1.200000
0
VERTEX
8
0
10
-2.900000
20
-1.200000
0
SEQEND
8
0
0
POLYLINE
8
0
66
1
40
0.016000
41
0.016000
0
VERTEX
8
0
10
-2.900000
20
-0.600000
0
VERTEX
8
0
10
-2.900000
20
-1.200000
0
SEQEND
8
0
0
POLYLINE
8
0
66
1
40
0.016000
41
0.016000
0
VERTEX
8
0
10
-4.300000
20
-0.300000
0
VERTEX
8
0
10
-4.300000
20
-0.300000
0
SEQEND
8
0
0
POLYLINE
8
0
66
1
40
0.016000
41
0.016000
0
VERTEX
8
0
10
-3.500000
20
-0.300000
0
VERTEX
8
0
10
-4.300000
20
-0.300000
0
SEQEND
8
0
0
POLYLINE
8
0
66
1
40
0.016000
41
0.016000
0
VERTEX
8
0
10
-2.400000
20
0.300000
0
VERTEX
8
0
10
-2.100000
20
0.300000
0
VERTEX
8
0
10
-2.100000
20
1.100000
0
VERTEX
8
0
10
-4.300000
20
1.100000
0
VERTEX
8
0
10
-4.300000
20
1.100000
0
SEQEND
8
0
0
POLYLINE
8
0
66
1
40
0.016000
41
0.016000
0
VERTEX
8
0
10
-2.900000
20
0.800000
0
VERTEX
8
0
10
-2.900000
20
1.700000
0
SEQEND
8
0
0
POLYLINE
8
0
66
1
40
0.016000
41
0.016000
0
VERTEX
8
0
10
-4.300000
20
1.100000
0
VERTEX
8
0
10
-4.300000
20
1.200000
0
SEQEND
8
0
0
POLYLINE
8
0
66
1
40
0.016000
41
0.016000
0
VERTEX
8
0
10
-4.300000
20
1.700000
0
VERTEX
8
0
10
-3.400000
20
1.700000
0
SEQEND
8
0
0
POLYLINE
8
0
66
1
40
0.016000
41
0.016000
0
VERTEX
8
0
10
-2.900000
20
1.700000
0
VERTEX
8
0
10
-3.400000
20
1.700000
0
SEQEND
8
0
0
POLYLINE
8
0
66
1
40
0.016000
41
0.016000
0
VERTEX
8
0
10
-3.400000
20
0.500000
0
VERTEX
8
0
10
-3.400000
20
1.700000
0
SEQEND
8
0
0
POLYLINE
8
0
66
1
40
0.016000
41
0.016000
0
VERTEX
8
0
10
-1.500000
20
1.600000
0
VERTEX
8
0
10
-1.500000
20
1.700000
0
SEQEND
8
0
0
POLYLINE
8
0
66
1
40
0.016000
41
0.016000
0
VERTEX
8
0
10
-2.900000
20
1.700000
0
VERTEX
8
0
10
-1.500000
20
1.700000
0
VERTEX
8
0
10
-0.900000
20
1.700000
0
SEQEND
8
0
0
POLYLINE
8
0
66
1
40
0.016000
41
0.016000
0
VERTEX
8
0
10
-1.500000
20
1.200000
0
VERTEX
8
0
10
-1.500000
20
1.100000
0
VERTEX
8
0
10
-0.900000
20
1.100000
0
SEQEND
8
0
0
POLYLINE
8
0
66
1
40
0.016000
41
0.016000
0
VERTEX
8
0
10
-2.900000
20
-1.200000
0
VERTEX
8
0
10
-0.900000
20
-1.200000
0
SEQEND
8
0
0
POLYLINE
8
0
66
1
40
0.016000
41
0.016000
0
VERTEX
8
0
10
-0.900000
20
1.100000
0
VERTEX
8
0
10
-0.900000
20
-1.200000
0
SEQEND
8
0
0
POLYLINE
8
0
66
1
40
0.016000
41
0.016000
0
VERTEX
8
0
10
-0.200000
20
1.400000
0
VERTEX
8
0
10
-0.200000
20
1.700000
0
SEQEND
8
0
0
POLYLINE
8
0
66
1
40
0.016000
41
0.016000
0
VERTEX
8
0
10
-0.900000
20
-1.200000
0
VERTEX
8
0
10
-0.200000
20
-1.200000
0
SEQEND
8
0
0
POLYLINE
8
0
66
1
40
0.016000
41
0.016000
0
VERTEX
8
0
10
-0.200000
20
-0.300000
0
VERTEX
8
0
10
-0.200000
20
-1.200000
0
VERTEX
8
0
10
2.800000
20
-1.200000
0
SEQEND
8
0
0
POLYLINE
8
0
66
1
40
0.016000
41
0.016000
0
VERTEX
8
0
10
2.600000
20
-1.100000
0
VERTEX
8
0
10
2.800000
20
-1.100000
0
SEQEND
8
0
0
POLYLINE
8
0
66
1
40
0.016000
41
0.016000
0
VERTEX
8
0
10
2.800000
20
-1.200000
0
VERTEX
8
0
10
2.800000
20
-1.100000
0
SEQEND
8
0
0
POLYLINE
8
0
66
1
40
0.016000
41
0.016000
0
VERTEX
8
0
10
3.000000
20
-1.100000
0
VERTEX
8
0
10
2.800000
20
-1.100000
0
SEQEND
8
0
0
POLYLINE
8
0
66
1
40
0.016000
41
0.016000
0
VERTEX
8
0
10
2.600000
20
-0.700000
0
VERTEX
8
0
10
2.600000
20
-0.600000
0
VERTEX
8
0
10
2.800000
20
-0.600000
0
SEQEND
8
0
0
POLYLINE
8
0
66
1
40
0.016000
41
0.016000
0
VERTEX
8
0
10
3.000000
20
-0.600000
0
VERTEX
8
0
10
2.800000
20
-0.600000
0
VERTEX
8
0
10
2.800000
20
1.700000
0
SEQEND
8
0
0
POLYLINE
8
0
66
1
40
0.016000
41
0.016000
0
VERTEX
8
0
10
2.400000
20
1.700000
0
VERTEX
8
0
10
2.800000
20
1.700000
0
SEQEND
8
0
0
POLYLINE
8
0
66
1
40
0.016000
41
0.016000
0
VERTEX
8
0
10
-0.900000
20
1.100000
0
VERTEX
8
0
10
-0.900000
20
1.200000
0
SEQEND
8
0
0
POLYLINE
8
0
66
1
40
0.016000
41
0.016000
0
VERTEX
8
0
10
-0.900000
20
1.700000
0
VERTEX
8
0
10
-0.900000
20
1.500000
0
SEQEND
8
0
0
POLYLINE
8
0
66
1
40
0.016000
41
0.016000
0
VERTEX
8
0
10
-0.900000
20
1.700000
0
VERTEX
8
0
10
-0.800000
20
1.700000
0
SEQEND
8
0
0
POLYLINE
8
0
66
1
40
0.016000
41
0.016000
0
VERTEX
8
0
10
-0.200000
20
1.700000
0
VERTEX
8
0
10
-0.300000
20
1.700000
0
SEQEND
8
0
0
POLYLINE
8
0
66
1
40
0.016000
41
0.016000
0
VERTEX
8
0
10
2.800000
20
1.700000
0
VERTEX
8
0
10
3.900000
20
1.700000
0
VERTEX
8
0
10
3.900000
20
0.300000
0
SEQEND
8
0
0
POLYLINE
8
0
66
1
40
0.016000
41
0.016000
0
VERTEX
8
0
10
2.800000
20
-1.200000
0
VERTEX
8
0
10
3.900000
20
-1.200000
0
VERTEX
8
0
10
3.900000
20
-0.300000
0
SEQEND
8
0
0
POLYLINE
8
0
66
1
40
0.016000
41
0.016000
0
VERTEX
8
0
10
-0.200000
20
-1.200000
0
VERTEX
8
0
10
-0.200000
20
-1.500000
0
SEQEND
8
0
0
POLYLINE
8
0
66
1
40
0.016000
41
0.016000
0
VERTEX
8
0
10
-4.300000
20
-0.300000
0
VERTEX
8
0
10
-4.300000
20
-0.200000
0
SEQEND
8
0
0
POLYLINE
8
0
66
1
40
0.016000
41
0.016000
0
VERTEX
8
0
10
-4.300000
20
0.600000
0
VERTEX
8
0
10
-4.300000
20
0.500000
0
SEQEND
8
0
0
POLYLINE
8
0
66
1
40
0.016000
41
0.016000
0
VERTEX
8
0
10
-4.300000
20
0.400000
0
VERTEX
8
0
10
-4.300000
20
0.500000
0
SEQEND
8
0
0
POLYLINE
8
0
66
1
40
0.016000
41
0.016000
0
VERTEX
8
0
10
-4.100000
20
0.100000
0
VERTEX
8
0
10
-4.100000
20
0.500000
0
VERTEX
8
0
10
-4.300000
20
0.500000
0
SEQEND
8
0
0
POLYLINE
8
0
66
1
40
0.016000
41
0.016000
0
VERTEX
8
0
10
1.400000
20
1.100000
0
VERTEX
8
0
10
1.400000
20
0.500000
0
SEQEND
8
0
0
POLYLINE
8
0
66
1
40
0.016000
41
0.016000
0
VERTEX
8
0
10
-0.200000
20
1.700000
0
VERTEX
8
0
10
1.400000
20
1.700000
0
SEQEND
8
0
0
POLYLINE
8
0
66
1
40
0.016000
41
0.016000
0
VERTEX
8
0
10
1.400000
20
1.500000
0
VERTEX
8
0
10
1.400000
20
1.700000
0
SEQEND
8
0
0
POLYLINE
8
0
66
1
40
0.016000
41
0.016000
0
VERTEX
8
0
10
2.400000
20
1.700000
0
VERTEX
8
0
10
2.400000
20
2.500000
0
SEQEND
8
0
0
POLYLINE
8
0
66
1
40
0.016000
41
0.016000
0
VERTEX
8
0
10
2.000000
20
2.500000
0
VERTEX
8
0
10
2.400000
20
2.500000
0
SEQEND
8
0
0
POLYLINE
8
0
66
1
40
0.016000
41
0.016000
0
VERTEX
8
0
10
1.800000
20
3.700000
0
VERTEX
8
0
10
2.400000
20
3.700000
0
VERTEX
8
0
10
2.400000
20
2.500000
0
SEQEND
8
0
0
POLYLINE
8
0
66
1
40
0.016000
41
0.016000
0
VERTEX
8
0
10
1.600000
20
2.500000
0
VERTEX
8
0
10
1.000000
20
2.500000
0
SEQEND
8
0
0
POLYLINE
8
0
66
1
40
0.016000
41
0.016000
0
VERTEX
8
0
10
1.800000
20
3.100000
0
VERTEX
8
0
10
1.800000
20
2.900000
0
VERTEX
8
0
10
1.000000
20
2.900000
0
VERTEX
8
0
10
1.000000
20
2.500000
0
SEQEND
8
0
0
POLYLINE
8
0
66
1
40
0.016000
41
0.016000
0
VERTEX
8
0
10
1.400000
20
0.500000
0
VERTEX
8
0
10
1.000000
20
0.500000
0
SEQEND
8
0
0
POLYLINE
8
0
66
1
40
0.016000
41
0.016000
0
VERTEX
8
0
10
0.700000
20
0.500000
0
VERTEX
8
0
10
1.000000
20
0.500000
0
SEQEND
8
0
0
POLYLINE
8
0
66
1
40
0.016000
41
0.016000
0
VERTEX
8
0
10
-0.200000
20
0.300000
0
VERTEX
8
0
10
-0.200000
20
0.500000
0
SEQEND
8
0
0
POLYLINE
8
0
66
1
40
0.016000
41
0.016000
0
VERTEX
8
0
10
-0.200000
20
1.100000
0
VERTEX
8
0
10
-0.200000
20
0.500000
0
SEQEND
8
0
0
POLYLINE
8
0
66
1
40
0.016000
41
0.016000
0
VERTEX
8
0
10
-0.700000
20
-0.100000
0
VERTEX
8
0
10
-0.800000
20
-0.100000
0
SEQEND
8
0
0
POLYLINE
8
0
66
1
40
0.016000
41
0.016000
0
VERTEX
8
0
10
1.400000
20
0.500000
0
VERTEX
8
0
10
2.000000
20
0.500000
0
VERTEX
8
0
10
2.000000
20
0.900000
0
SEQEND
8
0
0
POLYLINE
8
0
66
1
40
0.016000
41
0.016000
0
VERTEX
8
0
10
2.400000
20
1.700000
0
VERTEX
8
0
10
2.000000
20
1.700000
0
SEQEND
8
0
0
POLYLINE
8
0
66
1
40
0.016000
41
0.016000
0
VERTEX
8
0
10
1.400000
20
1.700000
0
VERTEX
8
0
10
2.000000
20
1.700000
0
SEQEND
8
0
0
POLYLINE
8
0
66
1
40
0.016000
41
0.016000
0
VERTEX
8
0
10
2.000000
20
1.300000
0
VERTEX
8
0
10
2.000000
20
1.700000
0
SEQEND
8
0
0
POLYLINE
8
0
66
1
40
0.016000
41
0.016000
0
VERTEX
8
0
10
-0.800000
20
-0.100000
0
VERTEX
8
0
10
-1.500000
20
-0.100000
0
SEQEND
8
0
0
POLYLINE
8
0
66
1
40
0.016000
41
0.016000
0
VERTEX
8
0
10
-2.400000
20
0.500000
0
VERTEX
8
0
10
-1.900000
20
0.500000
0
VERTEX
8
0
10
-1.900000
20
-0.100000
0
VERTEX
8
0
10
-1.800000
20
-0.100000
0
SEQEND
8
0
0
POLYLINE
8
0
66
1
40
0.016000
41
0.016000
0
VERTEX
8
0
10
-1.500000
20
-0.100000
0
VERTEX
8
0
10
-1.800000
20
-0.100000
0
SEQEND
8
0
0
POLYLINE
8
0
66
1
40
0.016000
41
0.016000
0
VERTEX
8
0
10
-2.000000
20
2.200000
0
VERTEX
8
0
10
-2.000000
20
1.600000
0
VERTEX
8
0
10
-1.800000
20
1.600000
0
VERTEX
8
0
10
-1.800000
20
-0.100000
0
SEQEND
8
0
0
POLYLINE
8
0
66
1
40
0.016000
41
0.016000
0
VERTEX
8
0
10
1.000000
20
2.500000
0
VERTEX
8
0
10
1.000000
20
2.200000
0
SEQEND
8
0
0
POLYLINE
8
0
66
1
40
0.016000
41
0.016000
0
VERTEX
8
0
10
-2.000000
20
2.400000
0
VERTEX
8
0
10
-2.100000
20
2.400000
0
VERTEX
8
0
10
-2.100000
20
2.100000
0
VERTEX
8
0
10
-0.800000
20
2.100000
0
VERTEX
8
0
10
-0.800000
20
2.200000
0
VERTEX
8
0
10
1.000000
20
2.200000
0
SEQEND
8
0
0
POLYLINE
8
0
66
1
40
0.016000
41
0.016000
0
VERTEX
8
0
10
0.100000
20
0.500000
0
VERTEX
8
0
10
0.100000
20
0.500000
0
VERTEX
8
0
10
0.000000
20
0.500000
0
SEQEND
8
0
0
POLYLINE
8
0
66
1
40
0.016000
41
0.016000
0
VERTEX
8
0
10
-0.200000
20
0.500000
0
VERTEX
8
0
10
0.000000
20
0.500000
0
SEQEND
8
0
0
POLYLINE
8
0
66
1
40
0.016000
41
0.016000
0
VERTEX
8
0
10
1.000000
20
2.200000
0
VERTEX
8
0
10
1.000000
20
1.900000
0
SEQEND
8
0
0
POLYLINE
8
0
66
1
40
0.016000
41
0.016000
0
VERTEX
8
0
10
1.000000
20
0.500000
0
VERTEX
8
0
10
1.000000
20
1.900000
0
SEQEND
8
0
0
POLYLINE
8
0
66
1
40
0.016000
41
0.016000
0
VERTEX
8
0
10
-3.200000
20
-0.400000
0
VERTEX
8
0
10
-2.600000
20
-0.400000
0
VERTEX
8
0
10
-2.600000
20
0.600000
0
VERTEX
8
0
10
-3.200000
20
0.600000
0
VERTEX
8
0
10
-3.200000
20
-0.400000
0
SEQEND
8
0
0
CIRCLE
8
0
10
-3.230000
20
0.500000
40
0.030000
0
POLYLINE
8
0
66
1
40
0.016000
41
0.016000
0
VERTEX
8
0
10
-3.400000
20
0.500000
0
VERTEX
8
0
10
-3.260000
20
0.500000
0
SEQEND
8
0
0
TEXT
8
0
10
-3.150000
20
0.460000
40
0.080000
41
1.000000
1
R
0
TEXT
8
0
10
-3.380000
20
0.510000
40
0.080000
41
1.000000
1
4
0
POLYLINE
8
0
66
1
40
0.016000
41
0.016000
0
VERTEX
8
0
10
-2.400000
20
0.300000
0
VERTEX
8
0
10
-2.600000
20
0.300000
0
SEQEND
8
0
0
TEXT
8
0
10
-2.810000
20
0.260000
40
0.080000
41
1.000000
1
DC
0
TEXT
8
0
10
-2.500000
20
0.310000
40
0.080000
41
1.000000
1
7
0
POLYLINE
8
0
66
1
40
0.016000
41
0.016000
0
VERTEX
8
0
10
-2.400000
20
0.500000
0
VERTEX
8
0
10
-2.600000
20
0.500000
0
SEQEND
8
0
0
TEXT
8
0
10
-2.730000
20
0.460000
40
0.080000
41
1.000000
1
Q
0
TEXT
8
0
10
-2.500000
20
0.510000
40
0.080000
41
1.000000
1
3
0
POLYLINE
8
0
66
1
40
0.016000
41
0.016000
0
VERTEX
8
0
10
-2.900000
20
-0.600000
0
VERTEX
8
0
10
-2.900000
20
-0.400000
0
SEQEND
8
0
0
TEXT
8
0
10
-2.860000
20
-0.350000
40
0.080000
41
1.000000
50
90.000000
1
GND
0
TEXT
8
0
10
-2.910000
20
-0.580000
40
0.080000
41
1.000000
50
90.000000
1
1
0
POLYLINE
8
0
66
1
40
0.016000
41
0.016000
0
VERTEX
8
0
10
-2.900000
20
0.800000
0
VERTEX
8
0
10
-2.900000
20
0.600000
0
SEQEND
8
0
0
TEXT
8
0
10
-2.860000
20
0.310000
40
0.080000
41
1.000000
50
90.000000
1
VCC
0
TEXT
8
0
10
-2.910000
20
0.700000
40
0.080000
41
1.000000
50
90.000000
1
8
0
POLYLINE
8
0
66
1
40
0.016000
41
0.016000
0
VERTEX
8
0
10
-3.400000
20
-0.300000
0
VERTEX
8
0
10
-3.200000
20
-0.300000
0
SEQEND
8
0
0
TEXT
8
0
10
-3.150000
20
-0.340000
40
0.080000
41
1.000000
1
TR
0
TEXT
8
0
10
-3.380000
20
-0.290000
40
0.080000
41
1.000000
1
2
0
POLYLINE
8
0
66
1
40
0.016000
41
0.016000
0
VERTEX
8
0
10
-2.400000
20
-0.300000
0
VERTEX
8
0
10
-2.600000
20
-0.300000
0
SEQEND
8
0
0
TEXT
8
0
10
-2.810000
20
-0.340000
40
0.080000
41
1.000000
1
TH
0
TEXT
8
0
10
-2.500000
20
-0.290000
40
0.080000
41
1.000000
1
6
0
POLYLINE
8
0
66
1
40
0.016000
41
0.016000
0
VERTEX
8
0
10
-3.400000
20
0.100000
0
VERTEX
8
0
10
-3.200000
20
0.100000
0
SEQEND
8
0
0
TEXT
8
0
10
-3.150000
20
0.060000
40
0.080000
41
1.000000
1
CV
0
TEXT
8
0
10
-3.380000
20
0.110000
40
0.080000
41
1.000000
1
5
0
TEXT
8
0
10
-2.591996
20
0.723000
40
0.120000
41
0.666667
1
U1
0
TEXT
8
0
10
-2.591996
20
-0.598000
40
0.080000
41
1.000000
1
555
0
POLYLINE
8
0
66
1
40
0.016000
41
0.016000
0
VERTEX
8
0
10
-0.400000
20
0.000000
0
VERTEX
8
0
10
-0.300000
20
0.030000
0
VERTEX
8
0
10
-0.300000
20
-0.030000
0
VERTEX
8
0
10
-0.400000
20
0.000000
0
SEQEND
8
0
0
POLYLINE
8
0
66
1
40
0.016000
41
0.016000
0
VERTEX
8
0
10
-0.450000
20
-0.150000
0
VERTEX
8
0
10
-0.400000
20
-0.150000
0
VERTEX
8
0
10
-0.400000
20
0.150000
0
VERTEX
8
0
10
-0.450000
20
0.150000
0
VERTEX
8
0
10
-0.450000
20
-0.150000
0
SEQEND
8
0
0
POLYLINE
8
0
66
1
40
0.016000
41
0.016000
0
VERTEX
8
0
10
-0.500000
20
0.100000
0
VERTEX
8
0
10
-0.500000
20
-0.100000
0
SEQEND
8
0
0
POLYLINE
8
0
66
1
40
0.016000
41
0.016000
0
VERTEX
8
0
10
-0.600000
20
-0.100000
0
VERTEX
8
0
10
-0.500000
20
-0.100000
0
SEQEND
8
0
0
POLYLINE
8
0
66
1
40
0.016000
41
0.016000
0
VERTEX
8
0
10
-0.400000
20
0.100000
0
VERTEX
8
0
10
-0.300000
20
0.100000
0
SEQEND
8
0
0
POLYLINE
8
0
66
1
40
0.016000
41
0.016000
0
VERTEX
8
0
10
-0.400000
20
-0.100000
0
VERTEX
8
0
10
-0.300000
20
-0.100000
0
SEQEND
8
0
0
POLYLINE
8
0
66
1
40
0.016000
41
0.016000
0
VERTEX
8
0
10
-0.300000
20
0.000000
0
VERTEX
8
0
10
-0.200000
20
0.000000
0
SEQEND
8
0
0
POLYLINE
8
0
66
1
40
0.016000
41
0.016000
0
VERTEX
8
0
10
-0.300000
20
-0.100000
0
VERTEX
8
0
10
-0.200000
20
-0.100000
0
VERTEX
8
0
10
-0.200000
20
-0.200000
0
SEQEND
8
0
0
POLYLINE
8
0
66
1
40
0.016000
41
0.016000
0
VERTEX
8
0
10
-0.200000
20
0.200000
0
VERTEX
8
0
10
-0.200000
20
0.100000
0
VERTEX
8
0
10
-0.300000
20
0.100000
0
SEQEND
8
0
0
POLYLINE
8
0
66
1
40
0.016000
41
0.016000
0
VERTEX
8
0
10
-0.200000
20
0.000000
0
VERTEX
8
0
10
-0.200000
20
-0.100000
0
SEQEND
8
0
0
POLYLINE
8
0
66
1
40
0.016000
41
0.016000
0
VERTEX
8
0
10
-0.200000
20
0.300000
0
VERTEX
8
0
10
-0.200000
20
0.200000
0
SEQEND
8
0
0
POLYLINE
8
0
66
1
40
0.016000
41
0.016000
0
VERTEX
8
0
10
-0.700000
20
-0.100000
0
VERTEX
8
0
10
-0.600000
20
-0.100000
0
SEQEND
8
0
0
POLYLINE
8
0
66
1
40
0.016000
41
0.016000
0
VERTEX
8
0
10
-0.200000
20
-0.300000
0
VERTEX
8
0
10
-0.200000
20
-0.200000
0
SEQEND
8
0
0
TEXT
8
0
10
-0.142000
20
0.073000
40
0.120000
41
0.666667
1
Q1
0
TEXT
8
0
10
-0.142000
20
-0.032000
40
0.080000
41
1.000000
1
IRF820
0
POLYLINE
8
0
66
1
40
0.016000
41
0.016000
0
VERTEX
8
0
10
-3.800000
20
-0.530000
0
VERTEX
8
0
10
-4.000000
20
-0.530000
0
SEQEND
8
0
0
POLYLINE
8
0
66
1
40
0.016000
41
0.016000
0
VERTEX
8
0
10
-3.800000
20
-0.470000
0
VERTEX
8
0
10
-4.000000
20
-0.470000
0
SEQEND
8
0
0
POLYLINE
8
0
66
1
40
0.016000
41
0.016000
0
VERTEX
8
0
10
-3.900000
20
-0.470000
0
VERTEX
8
0
10
-3.900000
20
-0.400000
0
SEQEND
8
0
0
POLYLINE
8
0
66
1
40
0.016000
41
0.016000
0
VERTEX
8
0
10
-3.900000
20
-0.530000
0
VERTEX
8
0
10
-3.900000
20
-0.600000
0
SEQEND
8
0
0
POLYLINE
8
0
66
1
40
0.016000
41
0.016000
0
VERTEX
8
0
10
-3.900000
20
-0.700000
0
VERTEX
8
0
10
-3.900000
20
-0.600000
0
SEQEND
8
0
0
POLYLINE
8
0
66
1
40
0.016000
41
0.016000
0
VERTEX
8
0
10
-3.900000
20
-0.300000
0
VERTEX
8
0
10
-3.900000
20
-0.400000
0
SEQEND
8
0
0
TEXT
8
0
10
-3.742000
20
-0.527000
40
0.120000
41
0.666667
1
C1
0
TEXT
8
0
10
-3.742000
20
-0.632000
40
0.080000
41
1.000000
1
0.1u
0
POLYLINE
8
0
66
1
40
0.016000
41
0.016000
0
VERTEX
8
0
10
-4.400000
20
-0.470000
0
VERTEX
8
0
10
-4.200000
20
-0.470000
0
SEQEND
8
0
0
POLYLINE
8
0
66
1
40
0.016000
41
0.016000
0
VERTEX
8
0
10
-4.400000
20
-0.530000
0
VERTEX
8
0
10
-4.200000
20
-0.530000
0
SEQEND
8
0
0
POLYLINE
8
0
66
1
40
0.016000
41
0.016000
0
VERTEX
8
0
10
-4.300000
20
-0.530000
0
VERTEX
8
0
10
-4.300000
20
-0.600000
0
SEQEND
8
0
0
POLYLINE
8
0
66
1
40
0.016000
41
0.016000
0
VERTEX
8
0
10
-4.300000
20
-0.470000
0
VERTEX
8
0
10
-4.300000
20
-0.400000
0
SEQEND
8
0
0
POLYLINE
8
0
66
1
40
0.016000
41
0.016000
0
VERTEX
8
0
10
-4.300000
20
-0.300000
0
VERTEX
8
0
10
-4.300000
20
-0.400000
0
SEQEND
8
0
0
POLYLINE
8
0
66
1
40
0.016000
41
0.016000
0
VERTEX
8
0
10
-4.300000
20
-0.700000
0
VERTEX
8
0
10
-4.300000
20
-0.600000
0
SEQEND
8
0
0
TEXT
8
0
10
-4.142000
20
-0.527000
40
0.120000
41
0.666667
1
C2
0
TEXT
8
0
10
-4.142000
20
-0.632000
40
0.080000
41
1.000000
1
220p
0
CIRCLE
8
0
10
-3.900000
20
-1.200000
40
0.020000
0
CIRCLE
8
0
10
-3.500000
20
-0.300000
40
0.020000
0
CIRCLE
8
0
10
-2.900000
20
-1.200000
40
0.020000
0
CIRCLE
8
0
10
-4.300000
20
-0.300000
40
0.020000
0
POLYLINE
8
0
66
1
40
0.016000
41
0.016000
0
VERTEX
8
0
10
-4.340000
20
0.700000
0
VERTEX
8
0
10
-4.260000
20
0.700000
0
VERTEX
8
0
10
-4.260000
20
1.000000
0
VERTEX
8
0
10
-4.340000
20
1.000000
0
VERTEX
8
0
10
-4.340000
20
0.700000
0
SEQEND
8
0
0
POLYLINE
8
0
66
1
40
0.016000
41
0.016000
0
VERTEX
8
0
10
-4.300000
20
1.100000
0
VERTEX
8
0
10
-4.300000
20
1.000000
0
SEQEND
8
0
0
POLYLINE
8
0
66
1
40
0.016000
41
0.016000
0
VERTEX
8
0
10
-4.300000
20
0.600000
0
VERTEX
8
0
10
-4.300000
20
0.700000
0
SEQEND
8
0
0
TEXT
8
0
10
-4.202000
20
0.873000
40
0.120000
41
0.666667
1
R1
0
TEXT
8
0
10
-4.202000
20
0.768000
40
0.080000
41
1.000000
1
1k
0
CIRCLE
8
0
10
-4.300000
20
1.100000
40
0.020000
0
CIRCLE
8
0
10
-2.900000
20
1.700000
40
0.020000
0
POLYLINE
8
0
66
1
40
0.016000
41
0.016000
0
VERTEX
8
0
10
-4.340000
20
1.300000
0
VERTEX
8
0
10
-4.260000
20
1.300000
0
VERTEX
8
0
10
-4.260000
20
1.600000
0
VERTEX
8
0
10
-4.340000
20
1.600000
0
VERTEX
8
0
10
-4.340000
20
1.300000
0
SEQEND
8
0
0
POLYLINE
8
0
66
1
40
0.016000
41
0.016000
0
VERTEX
8
0
10
-4.300000
20
1.700000
0
VERTEX
8
0
10
-4.300000
20
1.600000
0
SEQEND
8
0
0
POLYLINE
8
0
66
1
40
0.016000
41
0.016000
0
VERTEX
8
0
10
-4.300000
20
1.200000
0
VERTEX
8
0
10
-4.300000
20
1.300000
0
SEQEND
8
0
0
TEXT
8
0
10
-4.202000
20
1.473000
40
0.120000
41
0.666667
1
R2
0
TEXT
8
0
10
-4.202000
20
1.368000
40
0.080000
41
1.000000
1
9k
0
CIRCLE
8
0
10
-3.400000
20
1.700000
40
0.020000
0
POLYLINE
8
0
66
1
40
0.016000
41
0.016000
0
VERTEX
8
0
10
-1.600000
20
1.430000
0
VERTEX
8
0
10
-1.400000
20
1.430000
0
VERTEX
8
0
10
-1.400000
20
1.480000
0
VERTEX
8
0
10
-1.600000
20
1.480000
0
VERTEX
8
0
10
-1.600000
20
1.430000
0
SEQEND
8
0
0
POLYLINE
8
0
66
1
40
0.016000
41
0.016000
0
VERTEX
8
0
10
-1.600000
20
1.320000
0
VERTEX
8
0
10
-1.400000
20
1.320000
0
VERTEX
8
0
10
-1.400000
20
1.370000
0
VERTEX
8
0
10
-1.600000
20
1.370000
0
VERTEX
8
0
10
-1.600000
20
1.320000
0
SEQEND
8
0
0
POLYLINE
8
0
66
1
40
0.016000
41
0.016000
0
VERTEX
8
0
10
-1.500000
20
1.320000
0
VERTEX
8
0
10
-1.500000
20
1.300000
0
SEQEND
8
0
0
POLYLINE
8
0
66
1
40
0.016000
41
0.016000
0
VERTEX
8
0
10
-1.500000
20
1.480000
0
VERTEX
8
0
10
-1.500000
20
1.500000
0
SEQEND
8
0
0
POLYLINE
8
0
66
1
40
0.016000
41
0.016000
0
VERTEX
8
0
10
-1.450000
20
1.370000
0
VERTEX
8
0
10
-1.400000
20
1.320000
0
SEQEND
8
0
0
POLYLINE
8
0
66
1
40
0.016000
41
0.016000
0
VERTEX
8
0
10
-1.500000
20
1.370000
0
VERTEX
8
0
10
-1.450000
20
1.320000
0
SEQEND
8
0
0
POLYLINE
8
0
66
1
40
0.016000
41
0.016000
0
VERTEX
8
0
10
-1.550000
20
1.370000
0
VERTEX
8
0
10
-1.500000
20
1.320000
0
SEQEND
8
0
0
POLYLINE
8
0
66
1
40
0.016000
41
0.016000
0
VERTEX
8
0
10
-1.600000
20
1.370000
0
VERTEX
8
0
10
-1.550000
20
1.320000
0
SEQEND
8
0
0
POLYLINE
8
0
66
1
40
0.016000
41
0.016000
0
VERTEX
8
0
10
-1.500000
20
1.600000
0
VERTEX
8
0
10
-1.500000
20
1.500000
0
SEQEND
8
0
0
POLYLINE
8
0
66
1
40
0.016000
41
0.016000
0
VERTEX
8
0
10
-1.500000
20
1.200000
0
VERTEX
8
0
10
-1.500000
20
1.300000
0
SEQEND
8
0
0
TEXT
8
0
10
-1.342000
20
1.373000
40
0.120000
41
0.666667
1
C3
0
TEXT
8
0
10
-1.342000
20
1.268000
40
0.080000
41
1.000000
1
22u
0
CIRCLE
8
0
10
-1.500000
20
1.700000
40
0.020000
0
CIRCLE
8
0
10
-0.900000
20
1.700000
40
0.020000
0
CIRCLE
8
0
10
-0.900000
20
1.100000
40
0.020000
0
CIRCLE
8
0
10
-0.900000
20
-1.200000
40
0.020000
0
POLYLINE
8
0
66
1
40
0.016000
41
0.016000
0
VERTEX
8
0
10
-0.300000
20
1.200000
0
VERTEX
8
0
10
-0.100000
20
1.200000
0
VERTEX
8
0
10
-0.200000
20
1.300000
0
VERTEX
8
0
10
-0.300000
20
1.200000
0
SEQEND
8
0
0
POLYLINE
8
0
66
1
40
0.016000
41
0.016000
0
VERTEX
8
0
10
-0.300000
20
1.300000
0
VERTEX
8
0
10
-0.100000
20
1.300000
0
SEQEND
8
0
0
POLYLINE
8
0
66
1
40
0.016000
41
0.016000
0
VERTEX
8
0
10
-0.200000
20
1.100000
0
VERTEX
8
0
10
-0.200000
20
1.200000
0
SEQEND
8
0
0
POLYLINE
8
0
66
1
40
0.016000
41
0.016000
0
VERTEX
8
0
10
-0.200000
20
1.400000
0
VERTEX
8
0
10
-0.200000
20
1.300000
0
SEQEND
8
0
0
TEXT
8
0
10
-0.042000
20
1.173000
40
0.120000
41
0.666667
1
D2
0
TEXT
8
0
10
-0.042000
20
1.068000
40
0.080000
41
1.000000
1
1N4005GL
0
CIRCLE
8
0
10
-0.200000
20
1.700000
40
0.020000
0
CIRCLE
8
0
10
-0.200000
20
-1.200000
40
0.020000
0
CIRCLE
8
0
10
2.400000
20
1.700000
40
0.020000
0
POLYLINE
8
0
66
1
40
0.016000
41
0.016000
0
VERTEX
8
0
10
2.960000
20
-1.000000
0
VERTEX
8
0
10
3.040000
20
-1.000000
0
VERTEX
8
0
10
3.040000
20
-0.700000
0
VERTEX
8
0
10
2.960000
20
-0.700000
0
VERTEX
8
0
10
2.960000
20
-1.000000
0
SEQEND
8
0
0
POLYLINE
8
0
66
1
40
0.016000
41
0.016000
0
VERTEX
8
0
10
3.000000
20
-0.600000
0
VERTEX
8
0
10
3.000000
20
-0.700000
0
SEQEND
8
0
0
POLYLINE
8
0
66
1
40
0.016000
41
0.016000
0
VERTEX
8
0
10
3.000000
20
-1.100000
0
VERTEX
8
0
10
3.000000
20
-1.000000
0
SEQEND
8
0
0
TEXT
8
0
10
3.098000
20
-0.827000
40
0.120000
41
0.666667
1
R4
0
TEXT
8
0
10
3.098000
20
-0.932000
40
0.080000
41
1.000000
1
470K
0
POLYLINE
8
0
66
1
40
0.016000
41
0.016000
0
VERTEX
8
0
10
2.500000
20
-0.870000
0
VERTEX
8
0
10
2.700000
20
-0.870000
0
VERTEX
8
0
10
2.700000
20
-0.820000
0
VERTEX
8
0
10
2.500000
20
-0.820000
0
VERTEX
8
0
10
2.500000
20
-0.870000
0
SEQEND
8
0
0
POLYLINE
8
0
66
1
40
0.016000
41
0.016000
0
VERTEX
8
0
10
2.500000
20
-0.980000
0
VERTEX
8
0
10
2.700000
20
-0.980000
0
VERTEX
8
0
10
2.700000
20
-0.930000
0
VERTEX
8
0
10
2.500000
20
-0.930000
0
VERTEX
8
0
10
2.500000
20
-0.980000
0
SEQEND
8
0
0
POLYLINE
8
0
66
1
40
0.016000
41
0.016000
0
VERTEX
8
0
10
2.600000
20
-0.980000
0
VERTEX
8
0
10
2.600000
20
-1.000000
0
SEQEND
8
0
0
POLYLINE
8
0
66
1
40
0.016000
41
0.016000
0
VERTEX
8
0
10
2.600000
20
-0.820000
0
VERTEX
8
0
10
2.600000
20
-0.800000
0
SEQEND
8
0
0
POLYLINE
8
0
66
1
40
0.016000
41
0.016000
0
VERTEX
8
0
10
2.650000
20
-0.930000
0
VERTEX
8
0
10
2.700000
20
-0.980000
0
SEQEND
8
0
0
POLYLINE
8
0
66
1
40
0.016000
41
0.016000
0
VERTEX
8
0
10
2.600000
20
-0.930000
0
VERTEX
8
0
10
2.650000
20
-0.980000
0
SEQEND
8
0
0
POLYLINE
8
0
66
1
40
0.016000
41
0.016000
0
VERTEX
8
0
10
2.550000
20
-0.930000
0
VERTEX
8
0
10
2.600000
20
-0.980000
0
SEQEND
8
0
0
POLYLINE
8
0
66
1
40
0.016000
41
0.016000
0
VERTEX
8
0
10
2.500000
20
-0.930000
0
VERTEX
8
0
10
2.550000
20
-0.980000
0
SEQEND
8
0
0
POLYLINE
8
0
66
1
40
0.016000
41
0.016000
0
VERTEX
8
0
10
2.600000
20
-0.700000
0
VERTEX
8
0
10
2.600000
20
-0.800000
0
SEQEND
8
0
0
POLYLINE
8
0
66
1
40
0.016000
41
0.016000
0
VERTEX
8
0
10
2.600000
20
-1.100000
0
VERTEX
8
0
10
2.600000
20
-1.000000
0
SEQEND
8
0
0
TEXT
8
0
10
2.758000
20
-0.927000
40
0.120000
41
0.666667
1
C6
0
TEXT
8
0
10
2.758000
20
-1.032000
40
0.080000
41
1.000000
1
10u
0
CIRCLE
8
0
10
2.800000
20
-1.200000
40
0.020000
0
CIRCLE
8
0
10
2.800000
20
-1.100000
40
0.020000
0
CIRCLE
8
0
10
2.800000
20
-0.600000
40
0.020000
0
CIRCLE
8
0
10
2.800000
20
1.700000
40
0.020000
0
POLYLINE
8
0
66
1
40
0.016000
41
0.016000
0
VERTEX
8
0
10
-1.000000
20
1.300000
0
VERTEX
8
0
10
-0.800000
20
1.300000
0
VERTEX
8
0
10
-0.900000
20
1.400000
0
VERTEX
8
0
10
-1.000000
20
1.300000
0
SEQEND
8
0
0
POLYLINE
8
0
66
1
40
0.016000
41
0.016000
0
VERTEX
8
0
10
-1.000000
20
1.400000
0
VERTEX
8
0
10
-0.800000
20
1.400000
0
SEQEND
8
0
0
POLYLINE
8
0
66
1
40
0.016000
41
0.016000
0
VERTEX
8
0
10
-0.800000
20
1.350000
0
VERTEX
8
0
10
-0.800000
20
1.400000
0
SEQEND
8
0
0
POLYLINE
8
0
66
1
40
0.016000
41
0.016000
0
VERTEX
8
0
10
-0.900000
20
1.200000
0
VERTEX
8
0
10
-0.900000
20
1.300000
0
SEQEND
8
0
0
POLYLINE
8
0
66
1
40
0.016000
41
0.016000
0
VERTEX
8
0
10
-0.900000
20
1.500000
0
VERTEX
8
0
10
-0.900000
20
1.400000
0
SEQEND
8
0
0
TEXT
8
0
10
-0.742000
20
1.273000
40
0.120000
41
0.666667
1
D1
0
TEXT
8
0
10
-0.742000
20
1.168000
40
0.080000
41
1.000000
1
BZX55C
0
POLYLINE
8
0
66
1
40
0.016000
41
0.016000
0
VERTEX
8
0
10
-0.700000
20
1.660000
0
VERTEX
8
0
10
-0.400000
20
1.660000
0
VERTEX
8
0
10
-0.400000
20
1.740000
0
VERTEX
8
0
10
-0.700000
20
1.740000
0
VERTEX
8
0
10
-0.700000
20
1.660000
0
SEQEND
8
0
0
POLYLINE
8
0
66
1
40
0.016000
41
0.016000
0
VERTEX
8
0
10
-0.800000
20
1.700000
0
VERTEX
8
0
10
-0.700000
20
1.700000
0
SEQEND
8
0
0
POLYLINE
8
0
66
1
40
0.016000
41
0.016000
0
VERTEX
8
0
10
-0.300000
20
1.700000
0
VERTEX
8
0
10
-0.400000
20
1.700000
0
SEQEND
8
0
0
TEXT
8
0
10
-0.708000
20
1.763000
40
0.120000
41
0.666667
1
R5
0
TEXT
8
0
10
-0.708000
20
1.562000
40
0.080000
41
1.000000
1
100k
0
CIRCLE
8
0
10
3.900000
20
0.000000
40
0.200000
0
POLYLINE
8
0
66
1
40
0.016000
41
0.016000
0
VERTEX
8
0
10
3.850000
20
0.100000
0
VERTEX
8
0
10
3.950000
20
0.100000
0
SEQEND
8
0
0
POLYLINE
8
0
66
1
40
0.016000
41
0.016000
0
VERTEX
8
0
10
3.900000
20
0.150000
0
VERTEX
8
0
10
3.900000
20
0.050000
0
SEQEND
8
0
0
POLYLINE
8
0
66
1
40
0.016000
41
0.016000
0
VERTEX
8
0
10
3.850000
20
-0.100000
0
VERTEX
8
0
10
3.950000
20
-0.100000
0
SEQEND
8
0
0
POLYLINE
8
0
66
1
40
0.016000
41
0.016000
0
VERTEX
8
0
10
3.900000
20
0.300000
0
VERTEX
8
0
10
3.900000
20
0.200000
0
SEQEND
8
0
0
POLYLINE
8
0
66
1
40
0.016000
41
0.016000
0
VERTEX
8
0
10
3.900000
20
-0.300000
0
VERTEX
8
0
10
3.900000
20
-0.200000
0
SEQEND
8
0
0
TEXT
8
0
10
4.158000
20
0.073000
40
0.120000
41
0.666667
1
V2
0
TEXT
8
0
10
4.158000
20
-0.032000
40
0.080000
41
1.000000
1
188V
0
POLYLINE
8
0
66
1
40
0.016000
41
0.016000
0
VERTEX
8
0
10
-0.200000
20
-1.500000
0
VERTEX
8
0
10
-0.200000
20
-1.600000
0
SEQEND
8
0
0
POLYLINE
8
0
66
1
40
0.016000
41
0.016000
0
VERTEX
8
0
10
-0.300000
20
-1.600000
0
VERTEX
8
0
10
-0.100000
20
-1.600000
0
SEQEND
8
0
0
POLYLINE
8
0
66
1
40
0.016000
41
0.016000
0
VERTEX
8
0
10
-0.250000
20
-1.650000
0
VERTEX
8
0
10
-0.150000
20
-1.650000
0
SEQEND
8
0
0
POLYLINE
8
0
66
1
40
0.016000
41
0.016000
0
VERTEX
8
0
10
-0.210000
20
-1.700000
0
VERTEX
8
0
10
-0.190000
20
-1.700000
0
SEQEND
8
0
0
POLYLINE
8
0
66
1
40
0.016000
41
0.016000
0
VERTEX
8
0
10
-4.340000
20
-0.050000
0
VERTEX
8
0
10
-4.260000
20
-0.050000
0
VERTEX
8
0
10
-4.260000
20
0.250000
0
VERTEX
8
0
10
-4.340000
20
0.250000
0
VERTEX
8
0
10
-4.340000
20
-0.050000
0
SEQEND
8
0
0
POLYLINE
8
0
66
1
40
0.016000
41
0.016000
0
VERTEX
8
0
10
-4.300000
20
-0.100000
0
VERTEX
8
0
10
-4.300000
20
-0.050000
0
SEQEND
8
0
0
POLYLINE
8
0
66
1
40
0.016000
41
0.016000
0
VERTEX
8
0
10
-4.300000
20
0.250000
0
VERTEX
8
0
10
-4.300000
20
0.300000
0
SEQEND
8
0
0
POLYLINE
8
0
66
1
40
0.016000
41
0.016000
0
VERTEX
8
0
10
-4.250000
20
0.040000
0
VERTEX
8
0
10
-4.220000
20
0.020000
0
SEQEND
8
0
0
POLYLINE
8
0
66
1
40
0.016000
41
0.016000
0
VERTEX
8
0
10
-4.250000
20
0.040000
0
VERTEX
8
0
10
-4.220000
20
0.060000
0
SEQEND
8
0
0
POLYLINE
8
0
66
1
40
0.016000
41
0.016000
0
VERTEX
8
0
10
-4.250000
20
0.040000
0
VERTEX
8
0
10
-4.200000
20
0.040000
0
VERTEX
8
0
10
-4.200000
20
0.100000
0
SEQEND
8
0
0
TEXT
8
1
10
-4.272000
20
0.016000
40
0.056000
41
1.000000
50
90.000000
1
30%
0
POLYLINE
8
0
66
1
40
0.016000
41
0.016000
0
VERTEX
8
0
10
-4.300000
20
-0.200000
0
VERTEX
8
0
10
-4.300000
20
-0.100000
0
SEQEND
8
0
0
POLYLINE
8
0
66
1
40
0.016000
41
0.016000
0
VERTEX
8
0
10
-4.300000
20
0.400000
0
VERTEX
8
0
10
-4.300000
20
0.300000
0
SEQEND
8
0
0
POLYLINE
8
0
66
1
40
0.016000
41
0.016000
0
VERTEX
8
0
10
-4.100000
20
0.100000
0
VERTEX
8
0
10
-4.200000
20
0.100000
0
SEQEND
8
0
0
CIRCLE
8
0
10
-4.420000
20
0.210000
40
0.040000
0
POLYLINE
8
0
66
1
40
0.008000
41
0.008000
0
VERTEX
8
0
10
-4.420000
20
0.230000
0
VERTEX
8
0
10
-4.430000
20
0.220000
0
SEQEND
8
0
0
POLYLINE
8
0
66
1
40
0.008000
41
0.008000
0
VERTEX
8
0
10
-4.420000
20
0.230000
0
VERTEX
8
0
10
-4.410000
20
0.220000
0
SEQEND
8
0
0
POLYLINE
8
0
66
1
40
0.008000
41
0.008000
0
VERTEX
8
0
10
-4.420000
20
0.230000
0
VERTEX
8
0
10
-4.420000
20
0.190000
0
SEQEND
8
0
0
CIRCLE
8
0
10
-4.420000
20
-0.010000
40
0.040000
0
POLYLINE
8
0
66
1
40
0.008000
41
0.008000
0
VERTEX
8
0
10
-4.420000
20
-0.030000
0
VERTEX
8
0
10
-4.430000
20
-0.020000
0
SEQEND
8
0
0
POLYLINE
8
0
66
1
40
0.008000
41
0.008000
0
VERTEX
8
0
10
-4.420000
20
-0.030000
0
VERTEX
8
0
10
-4.410000
20
-0.020000
0
SEQEND
8
0
0
POLYLINE
8
0
66
1
40
0.008000
41
0.008000
0
VERTEX
8
0
10
-4.420000
20
-0.030000
0
VERTEX
8
0
10
-4.420000
20
0.010000
0
SEQEND
8
0
0
TEXT
8
0
10
-3.891996
20
0.523000
40
0.120000
41
0.666667
1
RV2
0
TEXT
8
0
10
-3.891996
20
0.402000
40
0.080000
41
1.000000
1
100k
0
CIRCLE
8
0
10
-4.300000
20
0.500000
40
0.020000
0
CIRCLE
8
0
10
1.800000
20
2.500000
40
0.120416
0
POLYLINE
8
0
66
1
40
0.015000
41
0.015000
0
VERTEX
8
0
10
1.750000
20
2.450000
0
VERTEX
8
0
10
1.750000
20
2.550000
0
SEQEND
8
0
0
POLYLINE
8
0
66
1
40
0.016000
41
0.016000
0
VERTEX
8
0
10
1.920000
20
2.500000
0
VERTEX
8
0
10
1.830000
20
2.500000
0
SEQEND
8
0
0
POLYLINE
8
0
66
1
40
0.016000
41
0.016000
0
VERTEX
8
0
10
1.750000
20
2.500000
0
VERTEX
8
0
10
1.680000
20
2.500000
0
SEQEND
8
0
0
POLYLINE
8
0
66
1
40
0.015000
41
0.015000
0
VERTEX
8
0
10
1.750000
20
2.500000
0
VERTEX
8
0
10
1.830000
20
2.560000
0
VERTEX
8
0
10
1.830000
20
2.440000
0
VERTEX
8
0
10
1.750000
20
2.500000
0
SEQEND
8
0
0
POLYLINE
8
0
66
1
40
0.016000
41
0.016000
0
VERTEX
8
0
10
2.000000
20
2.500000
0
VERTEX
8
0
10
1.900000
20
2.500000
0
SEQEND
8
0
0
POLYLINE
8
0
66
1
40
0.016000
41
0.016000
0
VERTEX
8
0
10
1.600000
20
2.500000
0
VERTEX
8
0
10
1.700000
20
2.500000
0
SEQEND
8
0
0
TEXT
8
0
10
1.672000
20
2.643000
40
0.120000
41
0.666667
1
D38
0
TEXT
8
0
10
1.672000
20
2.282000
40
0.080000
41
1.000000
1
LED-YELLOW
0
TEXT
8
0
10
1.672000
20
2.182000
40
0.080000
41
1.000000
1
VF=140V
0
TEXT
8
0
10
1.672000
20
2.082000
40
0.080000
41
1.000000
1
IMAX=30mA
0
POLYLINE
8
0
66
1
40
0.016000
41
0.016000
0
VERTEX
8
0
10
1.300000
20
1.330000
0
VERTEX
8
0
10
1.500000
20
1.330000
0
VERTEX
8
0
10
1.500000
20
1.380000
0
VERTEX
8
0
10
1.300000
20
1.380000
0
VERTEX
8
0
10
1.300000
20
1.330000
0
SEQEND
8
0
0
POLYLINE
8
0
66
1
40
0.016000
41
0.016000
0
VERTEX
8
0
10
1.300000
20
1.220000
0
VERTEX
8
0
10
1.500000
20
1.220000
0
VERTEX
8
0
10
1.500000
20
1.270000
0
VERTEX
8
0
10
1.300000
20
1.270000
0
VERTEX
8
0
10
1.300000
20
1.220000
0
SEQEND
8
0
0
POLYLINE
8
0
66
1
40
0.016000
41
0.016000
0
VERTEX
8
0
10
1.400000
20
1.220000
0
VERTEX
8
0
10
1.400000
20
1.200000
0
SEQEND
8
0
0
POLYLINE
8
0
66
1
40
0.016000
41
0.016000
0
VERTEX
8
0
10
1.400000
20
1.380000
0
VERTEX
8
0
10
1.400000
20
1.400000
0
SEQEND
8
0
0
POLYLINE
8
0
66
1
40
0.016000
41
0.016000
0
VERTEX
8
0
10
1.450000
20
1.270000
0
VERTEX
8
0
10
1.500000
20
1.220000
0
SEQEND
8
0
0
POLYLINE
8
0
66
1
40
0.016000
41
0.016000
0
VERTEX
8
0
10
1.400000
20
1.270000
0
VERTEX
8
0
10
1.450000
20
1.220000
0
SEQEND
8
0
0
POLYLINE
8
0
66
1
40
0.016000
41
0.016000
0
VERTEX
8
0
10
1.350000
20
1.270000
0
VERTEX
8
0
10
1.400000
20
1.220000
0
SEQEND
8
0
0
POLYLINE
8
0
66
1
40
0.016000
41
0.016000
0
VERTEX
8
0
10
1.300000
20
1.270000
0
VERTEX
8
0
10
1.350000
20
1.220000
0
SEQEND
8
0
0
POLYLINE
8
0
66
1
40
0.016000
41
0.016000
0
VERTEX
8
0
10
1.400000
20
1.500000
0
VERTEX
8
0
10
1.400000
20
1.400000
0
SEQEND
8
0
0
POLYLINE
8
0
66
1
40
0.016000
41
0.016000
0
VERTEX
8
0
10
1.400000
20
1.100000
0
VERTEX
8
0
10
1.400000
20
1.200000
0
SEQEND
8
0
0
TEXT
8
0
10
1.558000
20
1.273000
40
0.120000
41
0.666667
1
C8
0
TEXT
8
0
10
1.558000
20
1.168000
40
0.080000
41
1.000000
1
10u
0
CIRCLE
8
0
10
1.400000
20
0.500000
40
0.020000
0
CIRCLE
8
0
10
1.400000
20
1.700000
40
0.020000
0
CIRCLE
8
0
10
1.800000
20
3.400000
40
0.200000
0
POLYLINE
8
0
66
1
40
0.005000
41
0.005000
0
VERTEX
8
0
10
1.760000
20
3.670000
0
VERTEX
8
0
10
1.720000
20
3.670000
0
SEQEND
8
0
0
POLYLINE
8
0
66
1
40
0.005000
41
0.005000
0
VERTEX
8
0
10
1.740000
20
3.690000
0
VERTEX
8
0
10
1.740000
20
3.650000
0
SEQEND
8
0
0
POLYLINE
8
0
66
1
40
0.005000
41
0.005000
0
VERTEX
8
0
10
1.760000
20
3.130000
0
VERTEX
8
0
10
1.720000
20
3.130000
0
SEQEND
8
0
0
POLYLINE
8
0
66
1
40
0.008000
41
0.008000
0
VERTEX
8
0
10
1.660000
20
3.380000
0
VERTEX
8
0
10
1.940000
20
3.380000
0
VERTEX
8
0
10
1.940000
20
3.480000
0
VERTEX
8
0
10
1.660000
20
3.480000
0
VERTEX
8
0
10
1.660000
20
3.380000
0
SEQEND
8
0
0
TEXT
8
0
10
1.600000
20
3.390000
40
0.080000
41
1.000000
1
+88.8
0
TEXT
8
0
10
1.600000
20
3.272000
40
0.076000
41
1.052632
1
Volts
0
POLYLINE
8
0
66
1
40
0.016000
41
0.016000
0
VERTEX
8
0
10
1.800000
20
3.100000
0
VERTEX
8
0
10
1.800000
20
3.200000
0
SEQEND
8
0
0
POLYLINE
8
0
66
1
40
0.016000
41
0.016000
0
VERTEX
8
0
10
1.800000
20
3.700000
0
VERTEX
8
0
10
1.800000
20
3.600000
0
SEQEND
8
0
0
CIRCLE
8
0
10
2.400000
20
2.500000
40
0.020000
0
CIRCLE
8
0
10
1.000000
20
2.500000
40
0.020000
0
POLYLINE
8
0
66
1
40
0.016000
41
0.016000
0
VERTEX
8
0
10
0.500000
20
0.500000
0
VERTEX
8
0
10
0.498672
20
0.481348
0
VERTEX
8
0
10
0.495000
20
0.463281
0
VERTEX
8
0
10
0.489453
20
0.446387
0
VERTEX
8
0
10
0.482500
20
0.431250
0
VERTEX
8
0
10
0.474609
20
0.418457
0
VERTEX
8
0
10
0.466250
20
0.408594
0
VERTEX
8
0
10
0.457891
20
0.402246
0
VERTEX
8
0
10
0.450000
20
0.400000
0
SEQEND
8
0
0
POLYLINE
8
0
66
1
40
0.016000
41
0.016000
0
VERTEX
8
0
10
0.400000
20
0.500000
0
VERTEX
8
0
10
0.400918
20
0.481348
0
VERTEX
8
0
10
0.403594
20
0.463281
0
VERTEX
8
0
10
0.407910
20
0.446387
0
VERTEX
8
0
10
0.413750
20
0.431250
0
VERTEX
8
0
10
0.420996
20
0.418457
0
VERTEX
8
0
10
0.429531
20
0.408594
0
VERTEX
8
0
10
0.439238
20
0.402246
0
VERTEX
8
0
10
0.450000
20
0.400000
0
SEQEND
8
0
0
POLYLINE
8
0
66
1
40
0.016000
41
0.016000
0
VERTEX
8
0
10
0.400000
20
0.500000
0
VERTEX
8
0
10
0.399082
20
0.481348
0
VERTEX
8
0
10
0.396406
20
0.463281
0
VERTEX
8
0
10
0.392090
20
0.446387
0
VERTEX
8
0
10
0.386250
20
0.431250
0
VERTEX
8
0
10
0.379004
20
0.418457
0
VERTEX
8
0
10
0.370469
20
0.408594
0
VERTEX
8
0
10
0.360762
20
0.402246
0
VERTEX
8
0
10
0.350000
20
0.400000
0
SEQEND
8
0
0
POLYLINE
8
0
66
1
40
0.016000
41
0.016000
0
VERTEX
8
0
10
0.300000
20
0.500000
0
VERTEX
8
0
10
0.301328
20
0.481348
0
VERTEX
8
0
10
0.305000
20
0.463281
0
VERTEX
8
0
10
0.310547
20
0.446387
0
VERTEX
8
0
10
0.317500
20
0.431250
0
VERTEX
8
0
10
0.325391
20
0.418457
0
VERTEX
8
0
10
0.333750
20
0.408594
0
VERTEX
8
0
10
0.342109
20
0.402246
0
VERTEX
8
0
10
0.350000
20
0.400000
0
SEQEND
8
0
0
POLYLINE
8
0
66
1
40
0.016000
41
0.016000
0
VERTEX
8
0
10
0.500000
20
0.350000
0
VERTEX
8
0
10
0.300000
20
0.350000
0
SEQEND
8
0
0
POLYLINE
8
0
66
1
40
0.016000
41
0.016000
0
VERTEX
8
0
10
0.500000
20
0.300000
0
VERTEX
8
0
10
0.300000
20
0.300000
0
SEQEND
8
0
0
POLYLINE
8
0
66
1
40
0.016000
41
0.016000
0
VERTEX
8
0
10
0.100000
20
0.500000
0
VERTEX
8
0
10
0.300000
20
0.500000
0
SEQEND
8
0
0
POLYLINE
8
0
66
1
40
0.016000
41
0.016000
0
VERTEX
8
0
10
0.700000
20
0.500000
0
VERTEX
8
0
10
0.500000
20
0.500000
0
SEQEND
8
0
0
TEXT
8
0
10
0.292000
20
0.523000
40
0.120000
41
0.666667
1
L1
0
TEXT
8
0
10
0.292000
20
0.202000
40
0.080000
41
1.000000
1
MMZ1005S800C
0
CIRCLE
8
0
10
1.000000
20
0.500000
40
0.020000
0
CIRCLE
8
0
10
-0.200000
20
0.500000
40
0.020000
0
CIRCLE
8
0
10
-0.800000
20
-0.100000
40
0.020000
0
POLYLINE
8
0
66
1
40
0.016000
41
0.016000
0
VERTEX
8
0
10
2.100000
20
1.070000
0
VERTEX
8
0
10
1.900000
20
1.070000
0
SEQEND
8
0
0
POLYLINE
8
0
66
1
40
0.016000
41
0.016000
0
VERTEX
8
0
10
2.100000
20
1.130000
0
VERTEX
8
0
10
1.900000
20
1.130000
0
SEQEND
8
0
0
POLYLINE
8
0
66
1
40
0.016000
41
0.016000
0
VERTEX
8
0
10
2.000000
20
1.130000
0
VERTEX
8
0
10
2.000000
20
1.200000
0
SEQEND
8
0
0
POLYLINE
8
0
66
1
40
0.016000
41
0.016000
0
VERTEX
8
0
10
2.000000
20
1.070000
0
VERTEX
8
0
10
2.000000
20
1.000000
0
SEQEND
8
0
0
POLYLINE
8
0
66
1
40
0.016000
41
0.016000
0
VERTEX
8
0
10
2.000000
20
0.900000
0
VERTEX
8
0
10
2.000000
20
1.000000
0
SEQEND
8
0
0
POLYLINE
8
0
66
1
40
0.016000
41
0.016000
0
VERTEX
8
0
10
2.000000
20
1.300000
0
VERTEX
8
0
10
2.000000
20
1.200000
0
SEQEND
8
0
0
TEXT
8
0
10
2.158000
20
1.073000
40
0.120000
41
0.666667
1
C4
0
TEXT
8
0
10
2.158000
20
0.968000
40
0.080000
41
1.000000
1
0.47u
0
CIRCLE
8
0
10
2.000000
20
1.700000
40
0.020000
0
POLYLINE
8
2
66
1
40
0.010000
41
0.010000
0
VERTEX
8
2
10
-4.000000
20
-3.400000
0
VERTEX
8
2
10
-0.800000
20
-3.400000
0
VERTEX
8
2
10
-0.800000
20
-1.600000
0
VERTEX
8
2
10
-4.000000
20
-1.600000
0
VERTEX
8
2
10
-4.000000
20
-3.400000
0
SEQEND
8
2
0
POLYLINE
8
2
66
1
40
0.010000
41
0.010000
0
VERTEX
8
2
10
-4.000000
20
-1.710000
0
VERTEX
8
2
10
-0.800000
20
-1.710000
0
SEQEND
8
2
0
POLYLINE
8
2
66
1
40
0.010000
41
0.010000
0
VERTEX
8
2
10
-4.000000
20
-1.710000
0
VERTEX
8
2
10
-0.800000
20
-1.710000
0
SEQEND
8
2
0
TEXT
8
2
10
-3.164000
20
-1.700000
40
0.090000
41
1.000000
1
ANALOGUE ANALYSIS
0
POLYLINE
8
2
66
1
40
0.010000
41
0.010000
0
VERTEX
8
2
10
-3.940000
20
-1.740000
0
VERTEX
8
2
10
-1.170000
20
-1.740000
0
SEQEND
8
2
0
POLYLINE
8
2
66
1
40
0.010000
41
0.010000
0
VERTEX
8
2
10
-3.940000
20
-3.260000
0
VERTEX
8
2
10
-1.170000
20
-3.260000
0
SEQEND
8
2
0
POLYLINE
8
2
66
1
40
0.010000
41
0.010000
0
VERTEX
8
2
10
-3.940000
20
-1.740000
0
VERTEX
8
2
10
-3.940000
20
-3.260000
0
VERTEX
8
2
10
-3.940000
20
-3.200000
0
SEQEND
8
2
0
TEXT
8
3
10
-3.940000
20
-3.350000
40
0.080000
41
0.750000
1
0.00
0
POLYLINE
8
2
66
1
40
0.010000
41
0.010000
0
VERTEX
8
2
10
-3.884000
20
-3.260000
0
VERTEX
8
2
10
-3.884000
20
-3.240000
0
SEQEND
8
2
0
POLYLINE
8
2
66
1
40
0.010000
41
0.010000
0
VERTEX
8
2
10
-3.830000
20
-3.260000
0
VERTEX
8
2
10
-3.830000
20
-3.240000
0
SEQEND
8
2
0
POLYLINE
8
2
66
1
40
0.010000
41
0.010000
0
VERTEX
8
2
10
-3.774000
20
-3.260000
0
VERTEX
8
2
10
-3.774000
20
-3.240000
0
SEQEND
8
2
0
POLYLINE
8
2
66
1
40
0.010000
41
0.010000
0
VERTEX
8
2
10
-3.718000
20
-3.260000
0
VERTEX
8
2
10
-3.718000
20
-3.240000
0
SEQEND
8
2
0
POLYLINE
8
2
66
1
40
0.010000
41
0.010000
0
VERTEX
8
2
10
-3.664000
20
-3.260000
0
VERTEX
8
2
10
-3.664000
20
-3.240000
0
SEQEND
8
2
0
POLYLINE
8
2
66
1
40
0.010000
41
0.010000
0
VERTEX
8
2
10
-3.608000
20
-3.260000
0
VERTEX
8
2
10
-3.608000
20
-3.240000
0
SEQEND
8
2
0
POLYLINE
8
2
66
1
40
0.010000
41
0.010000
0
VERTEX
8
2
10
-3.552000
20
-3.260000
0
VERTEX
8
2
10
-3.552000
20
-3.240000
0
SEQEND
8
2
0
POLYLINE
8
2
66
1
40
0.010000
41
0.010000
0
VERTEX
8
2
10
-3.496000
20
-3.260000
0
VERTEX
8
2
10
-3.496000
20
-3.240000
0
SEQEND
8
2
0
POLYLINE
8
2
66
1
40
0.010000
41
0.010000
0
VERTEX
8
2
10
-3.442000
20
-3.260000
0
VERTEX
8
2
10
-3.442000
20
-3.240000
0
SEQEND
8
2
0
POLYLINE
8
2
66
1
40
0.010000
41
0.010000
0
VERTEX
8
2
10
-3.386000
20
-1.730000
0
VERTEX
8
2
10
-3.386000
20
-3.260000
0
VERTEX
8
2
10
-3.386000
20
-3.200000
0
SEQEND
8
2
0
TEXT
8
3
10
-3.506000
20
-3.350000
40
0.080000
41
0.750000
1
200m
0
POLYLINE
8
2
66
1
40
0.010000
41
0.010000
0
VERTEX
8
2
10
-3.330000
20
-3.260000
0
VERTEX
8
2
10
-3.330000
20
-3.240000
0
SEQEND
8
2
0
POLYLINE
8
2
66
1
40
0.010000
41
0.010000
0
VERTEX
8
2
10
-3.276000
20
-3.260000
0
VERTEX
8
2
10
-3.276000
20
-3.240000
0
SEQEND
8
2
0
POLYLINE
8
2
66
1
40
0.010000
41
0.010000
0
VERTEX
8
2
10
-3.220000
20
-3.260000
0
VERTEX
8
2
10
-3.220000
20
-3.240000
0
SEQEND
8
2
0
POLYLINE
8
2
66
1
40
0.010000
41
0.010000
0
VERTEX
8
2
10
-3.164000
20
-3.260000
0
VERTEX
8
2
10
-3.164000
20
-3.240000
0
SEQEND
8
2
0
POLYLINE
8
2
66
1
40
0.010000
41
0.010000
0
VERTEX
8
2
10
-3.110000
20
-3.260000
0
VERTEX
8
2
10
-3.110000
20
-3.240000
0
SEQEND
8
2
0
POLYLINE
8
2
66
1
40
0.010000
41
0.010000
0
VERTEX
8
2
10
-3.054000
20
-3.260000
0
VERTEX
8
2
10
-3.054000
20
-3.240000
0
SEQEND
8
2
0
POLYLINE
8
2
66
1
40
0.010000
41
0.010000
0
VERTEX
8
2
10
-2.998000
20
-3.260000
0
VERTEX
8
2
10
-2.998000
20
-3.240000
0
SEQEND
8
2
0
POLYLINE
8
2
66
1
40
0.010000
41
0.010000
0
VERTEX
8
2
10
-2.942000
20
-3.260000
0
VERTEX
8
2
10
-2.942000
20
-3.240000
0
SEQEND
8
2
0
POLYLINE
8
2
66
1
40
0.010000
41
0.010000
0
VERTEX
8
2
10
-2.888000
20
-3.260000
0
VERTEX
8
2
10
-2.888000
20
-3.240000
0
SEQEND
8
2
0
POLYLINE
8
2
66
1
40
0.010000
41
0.010000
0
VERTEX
8
2
10
-2.832000
20
-1.730000
0
VERTEX
8
2
10
-2.832000
20
-3.260000
0
VERTEX
8
2
10
-2.832000
20
-3.200000
0
SEQEND
8
2
0
TEXT
8
3
10
-2.952000
20
-3.350000
40
0.080000
41
0.750000
1
400m
0
POLYLINE
8
2
66
1
40
0.010000
41
0.010000
0
VERTEX
8
2
10
-2.776000
20
-3.260000
0
VERTEX
8
2
10
-2.776000
20
-3.240000
0
SEQEND
8
2
0
POLYLINE
8
2
66
1
40
0.010000
41
0.010000
0
VERTEX
8
2
10
-2.722000
20
-3.260000
0
VERTEX
8
2
10
-2.722000
20
-3.240000
0
SEQEND
8
2
0
POLYLINE
8
2
66
1
40
0.010000
41
0.010000
0
VERTEX
8
2
10
-2.666000
20
-3.260000
0
VERTEX
8
2
10
-2.666000
20
-3.240000
0
SEQEND
8
2
0
POLYLINE
8
2
66
1
40
0.010000
41
0.010000
0
VERTEX
8
2
10
-2.610000
20
-3.260000
0
VERTEX
8
2
10
-2.610000
20
-3.240000
0
SEQEND
8
2
0
POLYLINE
8
2
66
1
40
0.010000
41
0.010000
0
VERTEX
8
2
10
-2.556000
20
-3.260000
0
VERTEX
8
2
10
-2.556000
20
-3.240000
0
SEQEND
8
2
0
POLYLINE
8
2
66
1
40
0.010000
41
0.010000
0
VERTEX
8
2
10
-2.500000
20
-3.260000
0
VERTEX
8
2
10
-2.500000
20
-3.240000
0
SEQEND
8
2
0
POLYLINE
8
2
66
1
40
0.010000
41
0.010000
0
VERTEX
8
2
10
-2.444000
20
-3.260000
0
VERTEX
8
2
10
-2.444000
20
-3.240000
0
SEQEND
8
2
0
POLYLINE
8
2
66
1
40
0.010000
41
0.010000
0
VERTEX
8
2
10
-2.388000
20
-3.260000
0
VERTEX
8
2
10
-2.388000
20
-3.240000
0
SEQEND
8
2
0
POLYLINE
8
2
66
1
40
0.010000
41
0.010000
0
VERTEX
8
2
10
-2.334000
20
-3.260000
0
VERTEX
8
2
10
-2.334000
20
-3.240000
0
SEQEND
8
2
0
POLYLINE
8
2
66
1
40
0.010000
41
0.010000
0
VERTEX
8
2
10
-2.278000
20
-1.730000
0
VERTEX
8
2
10
-2.278000
20
-3.260000
0
VERTEX
8
2
10
-2.278000
20
-3.200000
0
SEQEND
8
2
0
TEXT
8
3
10
-2.398000
20
-3.350000
40
0.080000
41
0.750000
1
600m
0
POLYLINE
8
2
66
1
40
0.010000
41
0.010000
0
VERTEX
8
2
10
-2.222000
20
-3.260000
0
VERTEX
8
2
10
-2.222000
20
-3.240000
0
SEQEND
8
2
0
POLYLINE
8
2
66
1
40
0.010000
41
0.010000
0
VERTEX
8
2
10
-2.168000
20
-3.260000
0
VERTEX
8
2
10
-2.168000
20
-3.240000
0
SEQEND
8
2
0
POLYLINE
8
2
66
1
40
0.010000
41
0.010000
0
VERTEX
8
2
10
-2.112000
20
-3.260000
0
VERTEX
8
2
10
-2.112000
20
-3.240000
0
SEQEND
8
2
0
POLYLINE
8
2
66
1
40
0.010000
41
0.010000
0
VERTEX
8
2
10
-2.056000
20
-3.260000
0
VERTEX
8
2
10
-2.056000
20
-3.240000
0
SEQEND
8
2
0
POLYLINE
8
2
66
1
40
0.010000
41
0.010000
0
VERTEX
8
2
10
-2.000000
20
-3.260000
0
VERTEX
8
2
10
-2.000000
20
-3.240000
0
SEQEND
8
2
0
POLYLINE
8
2
66
1
40
0.010000
41
0.010000
0
VERTEX
8
2
10
-1.946000
20
-3.260000
0
VERTEX
8
2
10
-1.946000
20
-3.240000
0
SEQEND
8
2
0
POLYLINE
8
2
66
1
40
0.010000
41
0.010000
0
VERTEX
8
2
10
-1.890000
20
-3.260000
0
VERTEX
8
2
10
-1.890000
20
-3.240000
0
SEQEND
8
2
0
POLYLINE
8
2
66
1
40
0.010000
41
0.010000
0
VERTEX
8
2
10
-1.834000
20
-3.260000
0
VERTEX
8
2
10
-1.834000
20
-3.240000
0
SEQEND
8
2
0
POLYLINE
8
2
66
1
40
0.010000
41
0.010000
0
VERTEX
8
2
10
-1.780000
20
-3.260000
0
VERTEX
8
2
10
-1.780000
20
-3.240000
0
SEQEND
8
2
0
POLYLINE
8
2
66
1
40
0.010000
41
0.010000
0
VERTEX
8
2
10
-1.724000
20
-1.730000
0
VERTEX
8
2
10
-1.724000
20
-3.260000
0
VERTEX
8
2
10
-1.724000
20
-3.200000
0
SEQEND
8
2
0
TEXT
8
3
10
-1.844000
20
-3.350000
40
0.080000
41
0.750000
1
800m
0
POLYLINE
8
2
66
1
40
0.010000
41
0.010000
0
VERTEX
8
2
10
-1.668000
20
-3.260000
0
VERTEX
8
2
10
-1.668000
20
-3.240000
0
SEQEND
8
2
0
POLYLINE
8
2
66
1
40
0.010000
41
0.010000
0
VERTEX
8
2
10
-1.614000
20
-3.260000
0
VERTEX
8
2
10
-1.614000
20
-3.240000
0
SEQEND
8
2
0
POLYLINE
8
2
66
1
40
0.010000
41
0.010000
0
VERTEX
8
2
10
-1.558000
20
-3.260000
0
VERTEX
8
2
10
-1.558000
20
-3.240000
0
SEQEND
8
2
0
POLYLINE
8
2
66
1
40
0.010000
41
0.010000
0
VERTEX
8
2
10
-1.502000
20
-3.260000
0
VERTEX
8
2
10
-1.502000
20
-3.240000
0
SEQEND
8
2
0
POLYLINE
8
2
66
1
40
0.010000
41
0.010000
0
VERTEX
8
2
10
-1.448000
20
-3.260000
0
VERTEX
8
2
10
-1.448000
20
-3.240000
0
SEQEND
8
2
0
POLYLINE
8
2
66
1
40
0.010000
41
0.010000
0
VERTEX
8
2
10
-1.392000
20
-3.260000
0
VERTEX
8
2
10
-1.392000
20
-3.240000
0
SEQEND
8
2
0
POLYLINE
8
2
66
1
40
0.010000
41
0.010000
0
VERTEX
8
2
10
-1.336000
20
-3.260000
0
VERTEX
8
2
10
-1.336000
20
-3.240000
0
SEQEND
8
2
0
POLYLINE
8
2
66
1
40
0.010000
41
0.010000
0
VERTEX
8
2
10
-1.280000
20
-3.260000
0
VERTEX
8
2
10
-1.280000
20
-3.240000
0
SEQEND
8
2
0
POLYLINE
8
2
66
1
40
0.010000
41
0.010000
0
VERTEX
8
2
10
-1.226000
20
-3.260000
0
VERTEX
8
2
10
-1.226000
20
-3.240000
0
SEQEND
8
2
0
POLYLINE
8
2
66
1
40
0.010000
41
0.010000
0
VERTEX
8
2
10
-1.170000
20
-1.740000
0
VERTEX
8
2
10
-1.170000
20
-3.260000
0
VERTEX
8
2
10
-1.170000
20
-3.200000
0
SEQEND
8
2
0
TEXT
8
3
10
-1.410000
20
-3.350000
40
0.080000
41
0.750000
1
1.00
0
TEXT
8
4
10
-1.530000
20
-3.190000
40
0.080000
41
0.750000
1
Q1(G)
0
POLYLINE
8
0
66
1
40
0.008000
41
0.008000
0
VERTEX
8
0
10
-1.350000
20
0.050000
0
VERTEX
8
0
10
-1.450000
20
0.000000
0
VERTEX
8
0
10
-1.400000
20
-0.050000
0
VERTEX
8
0
10
-1.350000
20
0.050000
0
SEQEND
8
0
0
POLYLINE
8
0
66
1
40
0.008000
41
0.008000
0
VERTEX
8
0
10
-1.430000
20
-0.030000
0
VERTEX
8
0
10
-1.500000
20
-0.100000
0
SEQEND
8
0
0
TEXT
8
0
10
-1.300000
20
0.010000
40
0.080000
41
1.000000
1
Q1(G)
0
POLYLINE
8
0
66
1
40
0.016000
41
0.016000
0
VERTEX
8
0
10
-1.800000
20
2.100000
0
VERTEX
8
0
10
-0.900000
20
2.100000
0
VERTEX
8
0
10
-0.900000
20
2.900000
0
VERTEX
8
0
10
-1.800000
20
2.900000
0
VERTEX
8
0
10
-1.800000
20
2.100000
0
SEQEND
8
0
0
POLYLINE
8
0
66
1
40
0.010000
41
0.010000
0
VERTEX
8
0
10
-1.550000
20
2.250000
0
VERTEX
8
0
10
-1.000000
20
2.250000
0
VERTEX
8
0
10
-1.000000
20
2.750000
0
VERTEX
8
0
10
-1.550000
20
2.750000
0
VERTEX
8
0
10
-1.550000
20
2.250000
0
SEQEND
8
0
0
POLYLINE
8
0
66
1
40
0.000000
41
0.000000
0
VERTEX
8
0
10
-1.550000
20
2.600000
0
VERTEX
8
0
10
-1.000000
20
2.600000
0
SEQEND
8
0
0
POLYLINE
8
0
66
1
40
0.000000
41
0.000000
0
VERTEX
8
0
10
-1.550000
20
2.700000
0
VERTEX
8
0
10
-1.000000
20
2.700000
0
SEQEND
8
0
0
POLYLINE
8
0
66
1
40
0.000000
41
0.000000
0
VERTEX
8
0
10
-1.350000
20
2.750000
0
VERTEX
8
0
10
-1.350000
20
2.250000
0
SEQEND
8
0
0
POLYLINE
8
0
66
1
40
0.000000
41
0.000000
0
VERTEX
8
0
10
-1.300000
20
2.750000
0
VERTEX
8
0
10
-1.300000
20
2.250000
0
SEQEND
8
0
0
POLYLINE
8
0
66
1
40
0.000000
41
0.000000
0
VERTEX
8
0
10
-1.250000
20
2.750000
0
VERTEX
8
0
10
-1.250000
20
2.250000
0
SEQEND
8
0
0
POLYLINE
8
0
66
1
40
0.000000
41
0.000000
0
VERTEX
8
0
10
-1.200000
20
2.750000
0
VERTEX
8
0
10
-1.200000
20
2.250000
0
SEQEND
8
0
0
POLYLINE
8
0
66
1
40
0.000000
41
0.000000
0
VERTEX
8
0
10
-1.150000
20
2.750000
0
VERTEX
8
0
10
-1.150000
20
2.250000
0
SEQEND
8
0
0
POLYLINE
8
0
66
1
40
0.000000
41
0.000000
0
VERTEX
8
0
10
-1.100000
20
2.750000
0
VERTEX
8
0
10
-1.100000
20
2.250000
0
SEQEND
8
0
0
POLYLINE
8
0
66
1
40
0.000000
41
0.000000
0
VERTEX
8
0
10
-1.050000
20
2.750000
0
VERTEX
8
0
10
-1.050000
20
2.250000
0
SEQEND
8
0
0
POLYLINE
8
0
66
1
40
0.000000
41
0.000000
0
VERTEX
8
0
10
-1.550000
20
2.650000
0
VERTEX
8
0
10
-1.000000
20
2.650000
0
SEQEND
8
0
0
POLYLINE
8
0
66
1
40
0.000000
41
0.000000
0
VERTEX
8
0
10
-1.550000
20
2.550000
0
VERTEX
8
0
10
-1.000000
20
2.550000
0
SEQEND
8
0
0
POLYLINE
8
0
66
1
40
0.000000
41
0.000000
0
VERTEX
8
0
10
-1.550000
20
2.450000
0
VERTEX
8
0
10
-1.000000
20
2.450000
0
SEQEND
8
0
0
POLYLINE
8
0
66
1
40
0.000000
41
0.000000
0
VERTEX
8
0
10
-1.550000
20
2.400000
0
VERTEX
8
0
10
-1.000000
20
2.400000
0
SEQEND
8
0
0
POLYLINE
8
0
66
1
40
0.000000
41
0.000000
0
VERTEX
8
0
10
-1.550000
20
2.350000
0
VERTEX
8
0
10
-1.000000
20
2.350000
0
SEQEND
8
0
0
POLYLINE
8
0
66
1
40
0.000000
41
0.000000
0
VERTEX
8
0
10
-1.550000
20
2.300000
0
VERTEX
8
0
10
-1.000000
20
2.300000
0
SEQEND
8
0
0
POLYLINE
8
0
66
1
40
0.000000
41
0.000000
0
VERTEX
8
0
10
-1.450000
20
2.750000
0
VERTEX
8
0
10
-1.450000
20
2.250000
0
SEQEND
8
0
0
POLYLINE
8
0
66
1
40
0.000000
41
0.000000
0
VERTEX
8
0
10
-1.500000
20
2.750000
0
VERTEX
8
0
10
-1.500000
20
2.250000
0
SEQEND
8
0
0
POLYLINE
8
0
66
1
40
0.000000
41
0.000000
0
VERTEX
8
0
10
-1.400000
20
2.750000
0
VERTEX
8
0
10
-1.400000
20
2.250000
0
SEQEND
8
0
0
POLYLINE
8
0
66
1
40
0.016000
41
0.016000
0
VERTEX
8
0
10
-1.550000
20
2.650000
0
VERTEX
8
0
10
-1.500000
20
2.650000
0
VERTEX
8
0
10
-1.500000
20
2.710000
0
VERTEX
8
0
10
-1.450000
20
2.710000
0
VERTEX
8
0
10
-1.450000
20
2.650000
0
VERTEX
8
0
10
-1.400000
20
2.650000
0
VERTEX
8
0
10
-1.400000
20
2.710000
0
VERTEX
8
0
10
-1.350000
20
2.710000
0
VERTEX
8
0
10
-1.350000
20
2.650000
0
VERTEX
8
0
10
-1.300000
20
2.650000
0
VERTEX
8
0
10
-1.300000
20
2.710000
0
VERTEX
8
0
10
-1.250000
20
2.710000
0
VERTEX
8
0
10
-1.250000
20
2.650000
0
VERTEX
8
0
10
-1.200000
20
2.650000
0
VERTEX
8
0
10
-1.200000
20
2.710000
0
VERTEX
8
0
10
-1.150000
20
2.710000
0
VERTEX
8
0
10
-1.150000
20
2.650000
0
VERTEX
8
0
10
-1.100000
20
2.650000
0
VERTEX
8
0
10
-1.100000
20
2.710000
0
VERTEX
8
0
10
-1.050000
20
2.710000
0
VERTEX
8
0
10
-1.050000
20
2.650000
0
VERTEX
8
0
10
-1.000000
20
2.650000
0
SEQEND
8
0
0
POLYLINE
8
0
66
1
40
0.016000
41
0.016000
0
VERTEX
8
0
10
-1.550000
20
2.400000
0
VERTEX
8
0
10
-1.500000
20
2.400000
0
VERTEX
8
0
10
-1.500000
20
2.460000
0
VERTEX
8
0
10
-1.450000
20
2.460000
0
VERTEX
8
0
10
-1.450000
20
2.400000
0
VERTEX
8
0
10
-1.400000
20
2.400000
0
VERTEX
8
0
10
-1.400000
20
2.460000
0
VERTEX
8
0
10
-1.350000
20
2.460000
0
VERTEX
8
0
10
-1.350000
20
2.400000
0
VERTEX
8
0
10
-1.300000
20
2.400000
0
VERTEX
8
0
10
-1.300000
20
2.460000
0
VERTEX
8
0
10
-1.250000
20
2.460000
0
VERTEX
8
0
10
-1.250000
20
2.400000
0
VERTEX
8
0
10
-1.200000
20
2.400000
0
VERTEX
8
0
10
-1.200000
20
2.460000
0
VERTEX
8
0
10
-1.150000
20
2.460000
0
VERTEX
8
0
10
-1.150000
20
2.400000
0
VERTEX
8
0
10
-1.100000
20
2.400000
0
VERTEX
8
0
10
-1.100000
20
2.460000
0
VERTEX
8
0
10
-1.050000
20
2.460000
0
VERTEX
8
0
10
-1.050000
20
2.400000
0
VERTEX
8
0
10
-1.000000
20
2.400000
0
SEQEND
8
0
0
POLYLINE
8
0
66
1
40
0.016000
41
0.016000
0
VERTEX
8
0
10
-1.540000
20
2.530000
0
VERTEX
8
0
10
-1.550000
20
2.540000
0
SEQEND
8
0
0
POLYLINE
8
0
66
1
40
0.016000
41
0.016000
0
VERTEX
8
0
10
-1.540000
20
2.530000
0
VERTEX
8
0
10
-1.500000
20
2.590000
0
VERTEX
8
0
10
-1.460000
20
2.530000
0
VERTEX
8
0
10
-1.420000
20
2.590000
0
VERTEX
8
0
10
-1.380000
20
2.530000
0
VERTEX
8
0
10
-1.340000
20
2.590000
0
VERTEX
8
0
10
-1.300000
20
2.530000
0
VERTEX
8
0
10
-1.260000
20
2.590000
0
VERTEX
8
0
10
-1.220000
20
2.530000
0
VERTEX
8
0
10
-1.180000
20
2.590000
0
VERTEX
8
0
10
-1.140000
20
2.530000
0
VERTEX
8
0
10
-1.100000
20
2.590000
0
VERTEX
8
0
10
-1.060000
20
2.530000
0
VERTEX
8
0
10
-1.020000
20
2.590000
0
VERTEX
8
0
10
-1.000000
20
2.560000
0
SEQEND
8
0
0
POLYLINE
8
0
66
1
40
0.000000
41
0.000000
0
VERTEX
8
0
10
-1.550000
20
2.500000
0
VERTEX
8
0
10
-1.000000
20
2.500000
0
SEQEND
8
0
0
POLYLINE
8
0
66
1
40
0.016000
41
0.016000
0
VERTEX
8
0
10
-1.550000
20
2.320000
0
VERTEX
8
0
10
-1.544219
20
2.330000
0
VERTEX
8
0
10
-1.537871
20
2.336875
0
VERTEX
8
0
10
-1.534089
20
2.339141
0
VERTEX
8
0
10
-1.530000
20
2.340000
0
VERTEX
8
0
10
-1.525911
20
2.339141
0
VERTEX
8
0
10
-1.522129
20
2.336875
0
VERTEX
8
0
10
-1.515781
20
2.330000
0
VERTEX
8
0
10
-1.510000
20
2.320000
0
VERTEX
8
0
10
-1.504219
20
2.310000
0
VERTEX
8
0
10
-1.497871
20
2.303125
0
VERTEX
8
0
10
-1.494089
20
2.300859
0
VERTEX
8
0
10
-1.490000
20
2.300000
0
VERTEX
8
0
10
-1.485911
20
2.300859
0
VERTEX
8
0
10
-1.482129
20
2.303125
0
VERTEX
8
0
10
-1.475781
20
2.310000
0
VERTEX
8
0
10
-1.470000
20
2.320000
0
VERTEX
8
0
10
-1.464219
20
2.330000
0
VERTEX
8
0
10
-1.457871
20
2.336875
0
VERTEX
8
0
10
-1.454089
20
2.339141
0
VERTEX
8
0
10
-1.450000
20
2.340000
0
VERTEX
8
0
10
-1.445911
20
2.339141
0
VERTEX
8
0
10
-1.442129
20
2.336875
0
VERTEX
8
0
10
-1.435781
20
2.330000
0
VERTEX
8
0
10
-1.430000
20
2.320000
0
VERTEX
8
0
10
-1.424219
20
2.310000
0
VERTEX
8
0
10
-1.417871
20
2.303125
0
VERTEX
8
0
10
-1.414089
20
2.300859
0
VERTEX
8
0
10
-1.410000
20
2.300000
0
VERTEX
8
0
10
-1.405911
20
2.300859
0
VERTEX
8
0
10
-1.402129
20
2.303125
0
VERTEX
8
0
10
-1.395781
20
2.310000
0
VERTEX
8
0
10
-1.390000
20
2.320000
0
VERTEX
8
0
10
-1.384219
20
2.330000
0
VERTEX
8
0
10
-1.377871
20
2.336875
0
VERTEX
8
0
10
-1.374089
20
2.339141
0
VERTEX
8
0
10
-1.370000
20
2.340000
0
VERTEX
8
0
10
-1.365911
20
2.339141
0
VERTEX
8
0
10
-1.362129
20
2.336875
0
VERTEX
8
0
10
-1.355781
20
2.330000
0
VERTEX
8
0
10
-1.350000
20
2.320000
0
VERTEX
8
0
10
-1.344219
20
2.310000
0
VERTEX
8
0
10
-1.337871
20
2.303125
0
VERTEX
8
0
10
-1.334089
20
2.300859
0
VERTEX
8
0
10
-1.330000
20
2.300000
0
VERTEX
8
0
10
-1.325911
20
2.300859
0
VERTEX
8
0
10
-1.322129
20
2.303125
0
VERTEX
8
0
10
-1.315781
20
2.310000
0
VERTEX
8
0
10
-1.310000
20
2.320000
0
VERTEX
8
0
10
-1.304219
20
2.330000
0
VERTEX
8
0
10
-1.297871
20
2.336875
0
VERTEX
8
0
10
-1.294089
20
2.339141
0
VERTEX
8
0
10
-1.290000
20
2.340000
0
VERTEX
8
0
10
-1.285911
20
2.339141
0
VERTEX
8
0
10
-1.282129
20
2.336875
0
VERTEX
8
0
10
-1.275781
20
2.330000
0
VERTEX
8
0
10
-1.270000
20
2.320000
0
VERTEX
8
0
10
-1.264219
20
2.310000
0
VERTEX
8
0
10
-1.257871
20
2.303125
0
VERTEX
8
0
10
-1.254089
20
2.300859
0
VERTEX
8
0
10
-1.250000
20
2.300000
0
VERTEX
8
0
10
-1.245911
20
2.300859
0
VERTEX
8
0
10
-1.242129
20
2.303125
0
VERTEX
8
0
10
-1.235781
20
2.310000
0
VERTEX
8
0
10
-1.230000
20
2.320000
0
VERTEX
8
0
10
-1.224219
20
2.330000
0
VERTEX
8
0
10
-1.217871
20
2.336875
0
VERTEX
8
0
10
-1.214089
20
2.339141
0
VERTEX
8
0
10
-1.210000
20
2.340000
0
VERTEX
8
0
10
-1.205911
20
2.339141
0
VERTEX
8
0
10
-1.202129
20
2.336875
0
VERTEX
8
0
10
-1.195781
20
2.330000
0
VERTEX
8
0
10
-1.190000
20
2.320000
0
VERTEX
8
0
10
-1.184219
20
2.310000
0
VERTEX
8
0
10
-1.177871
20
2.303125
0
VERTEX
8
0
10
-1.174089
20
2.300859
0
VERTEX
8
0
10
-1.170000
20
2.300000
0
VERTEX
8
0
10
-1.165911
20
2.300859
0
VERTEX
8
0
10
-1.162129
20
2.303125
0
VERTEX
8
0
10
-1.155781
20
2.310000
0
VERTEX
8
0
10
-1.150000
20
2.320000
0
VERTEX
8
0
10
-1.144219
20
2.330000
0
VERTEX
8
0
10
-1.137871
20
2.336875
0
VERTEX
8
0
10
-1.134089
20
2.339141
0
VERTEX
8
0
10
-1.130000
20
2.340000
0
VERTEX
8
0
10
-1.125911
20
2.339141
0
VERTEX
8
0
10
-1.122129
20
2.336875
0
VERTEX
8
0
10
-1.115781
20
2.330000
0
VERTEX
8
0
10
-1.110000
20
2.320000
0
VERTEX
8
0
10
-1.104219
20
2.310000
0
VERTEX
8
0
10
-1.097871
20
2.303125
0
VERTEX
8
0
10
-1.094089
20
2.300859
0
VERTEX
8
0
10
-1.090000
20
2.300000
0
VERTEX
8
0
10
-1.085911
20
2.300859
0
VERTEX
8
0
10
-1.082129
20
2.303125
0
VERTEX
8
0
10
-1.075781
20
2.310000
0
VERTEX
8
0
10
-1.070000
20
2.320000
0
VERTEX
8
0
10
-1.064219
20
2.330000
0
VERTEX
8
0
10
-1.057871
20
2.336875
0
VERTEX
8
0
10
-1.054089
20
2.339141
0
VERTEX
8
0
10
-1.050000
20
2.340000
0
VERTEX
8
0
10
-1.045911
20
2.339141
0
VERTEX
8
0
10
-1.042129
20
2.336875
0
VERTEX
8
0
10
-1.035781
20
2.330000
0
VERTEX
8
0
10
-1.030000
20
2.320000
0
VERTEX
8
0
10
-1.024219
20
2.310000
0
VERTEX
8
0
10
-1.017871
20
2.303125
0
VERTEX
8
0
10
-1.014089
20
2.300859
0
VERTEX
8
0
10
-1.010000
20
2.300000
0
VERTEX
8
0
10
-1.000000
20
2.320000
0
SEQEND
8
0
0
POLYLINE
8
0
66
1
40
0.016000
41
0.016000
0
VERTEX
8
0
10
-2.000000
20
2.800000
0
VERTEX
8
0
10
-1.800000
20
2.800000
0
SEQEND
8
0
0
TEXT
8
0
10
-1.750000
20
2.760000
40
0.080000
41
1.000000
1
A
0
POLYLINE
8
0
66
1
40
0.016000
41
0.016000
0
VERTEX
8
0
10
-2.000000
20
2.600000
0
VERTEX
8
0
10
-1.800000
20
2.600000
0
SEQEND
8
0
0
TEXT
8
0
10
-1.750000
20
2.560000
40
0.080000
41
1.000000
1
B
0
POLYLINE
8
0
66
1
40
0.016000
41
0.016000
0
VERTEX
8
0
10
-2.000000
20
2.400000
0
VERTEX
8
0
10
-1.800000
20
2.400000
0
SEQEND
8
0
0
TEXT
8
0
10
-1.750000
20
2.360000
40
0.080000
41
1.000000
1
C
0
POLYLINE
8
0
66
1
40
0.016000
41
0.016000
0
VERTEX
8
0
10
-2.000000
20
2.200000
0
VERTEX
8
0
10
-1.800000
20
2.200000
0
SEQEND
8
0
0
TEXT
8
0
10
-1.750000
20
2.160000
40
0.080000
41
1.000000
1
D
0
CIRCLE
8
0
10
-1.800000
20
-0.100000
40
0.020000
0
CIRCLE
8
0
10
1.000000
20
2.200000
40
0.020000
0
CIRCLE
8
0
10
0.100000
20
0.500000
40
0.020000
0
CIRCLE
8
0
10
0.000000
20
0.500000
40
0.020000
0
POLYLINE
8
0
66
1
40
0.008000
41
0.008000
0
VERTEX
8
0
10
1.150000
20
2.050000
0
VERTEX
8
0
10
1.050000
20
2.000000
0
VERTEX
8
0
10
1.100000
20
1.950000
0
VERTEX
8
0
10
1.150000
20
2.050000
0
SEQEND
8
0
0
POLYLINE
8
0
66
1
40
0.008000
41
0.008000
0
VERTEX
8
0
10
1.070000
20
1.970000
0
VERTEX
8
0
10
1.000000
20
1.900000
0
SEQEND
8
0
0
TEXT
8
0
10
1.200000
20
2.010000
40
0.080000
41
1.000000
1
D38(K)
0
ENDSEC
0
EOF

